<?xml version="1.0" standalone="no"?>
<!DOCTYPE svg PUBLIC "-//W3C//DTD SVG 1.1//EN" "http://www.w3.org/Graphics/SVG/1.1/DTD/svg11.dtd" >
<svg xmlns="http://www.w3.org/2000/svg">
<metadata>
This is a custom SVG webfont generated by Font Squirrel.
Designer    : Heydon Pickering
Foundry URL : http
</metadata>
<defs>
<font id="HeydingsControlsRegular" horiz-adv-x="2048" >
<font-face units-per-em="2048" ascent="1638" descent="-410" />
<missing-glyph horiz-adv-x="500" />
<glyph unicode="+" d="M144 170q-8 -80 44 -132t132 -44t142 70l362 362q70 70 70 158q4 24 0 48l84 86q164 -128 376 -114t362 164q164 164 164 397t-164 398t-397 165t-399 -164q-148 -150 -163 -361t111 -375l-88 -86q-10 2 -22 2q-102 12 -182 -70l-362 -362q-62 -62 -70 -142zM920 1165 q0 165 117 282t282 117t281 -117t116 -282t-116 -281t-281 -116t-282 116t-117 281zM1120 1104v120h400v-120h-400zM1260 964v400h120v-400h-120z" />
<glyph unicode="-" d="M120 168q-8 -80 44 -131t132 -44t142 69l362 362q70 70 72 158q2 24 -2 50l84 84q164 -126 376 -113t362 163q166 166 166 399t-165 397t-398 164t-399 -164q-148 -150 -162 -360t110 -374l-86 -88q-12 2 -24 2q-100 12 -182 -70l-362 -360q-62 -64 -70 -144zM896 1165 q0 165 117 281t282 116t282 -116t117 -281t-117 -282t-282 -117t-282 117t-117 282zM1096 1102v120h400v-120h-400z" />
<glyph unicode="1" d="M120 -8v160h1400v-160h-1400zM120 312v160h1760v-160h-1760zM120 632v160h1400v-160h-1400zM120 952v160h1760v-160h-1760zM120 1272v160h1400v-160h-1400zM120 1592v160h1760v-160h-1760z" />
<glyph unicode="2" d="M120 312h1760v160h-1760v-160zM120 952h1760v160h-1760v-160zM120 1592h1760v160h-1760v-160zM300 -8h1400v160h-1400v-160zM300 632h1400v160h-1400v-160zM300 1272h1400v160h-1400v-160z" />
<glyph unicode="3" d="M120 312h1760v160h-1760v-160zM120 952h1760v160h-1760v-160zM120 1592h1760v160h-1760v-160zM480 -8h1400v160h-1400v-160zM480 632h1400v160h-1400v-160zM480 1272h1400v160h-1400v-160z" />
<glyph unicode="4" d="M120 -8h1760v160h-1760v-160zM120 312h1760v160h-1760v-160zM120 632h1760v160h-1760v-160zM120 952h1760v160h-1760v-160zM120 1272h1760v160h-1760v-160zM120 1592h1760v160h-1760v-160z" />
<glyph unicode="5" d="M160 152q0 -66 47 -113t113 -47t113 47t47 113t-47 113t-113 47t-113 -47t-47 -113zM160 552q0 -66 47 -113t113 -47t113 47t47 113t-47 113t-113 47t-113 -47t-47 -113zM160 952q0 -66 47 -113t113 -47t113 47t47 113t-47 113t-113 47t-113 -47t-47 -113zM160 1352 q0 -66 47 -113t113 -47t113 47t47 113t-47 113t-113 47t-113 -47t-47 -113zM600 72h1240v160h-1240v-160zM600 472h1240v160h-1240v-160zM600 872h1240v160h-1240v-160zM600 1272h1240v160h-1240v-160z" />
<glyph unicode="6" d="M422 -8h324h92h278q192 0 327 136t135 328q0 134 -71 246t-189 170q118 58 189 170t71 246q0 192 -135 328t-327 136h-278h-92h-324v-138h46h92v-1484h-92h-46v-138zM884 136v636q36 4 72 4q162 0 277 -94t115 -228t-115 -229t-277 -95q-36 0 -72 6zM884 972v636 q36 6 72 6q162 0 277 -95t115 -229t-115 -228t-277 -94q-36 0 -72 4z" />
<glyph unicode="7" d="M320 -8v100q32 2 107 4t117 5t96 26t90 65h394q78 -108 396 -100v-100h-1200zM480 1652v100h1200v-100q-288 0 -400 -100h-400q-54 44 -166 72t-234 28zM720 152l160 1440h400l-160 -1440h-400z" />
<glyph unicode="8" d="M120 828q0 -26 2 -54v-11q0 -3 2 -11v-10l4 -32q2 -12 4 -22l2 -10q4 -26 12 -52l4 -20q4 -16 9 -31t11 -29l4 -10l4 -10l4 -10l8 -18l4 -10q4 -10 66 -104q42 32 104 46q-118 198 -130 344h184q6 -130 42 -298h114q-40 148 -44 298h414v-312l56 -122l56 122v312h410 q-8 -170 -44 -308h112q36 152 44 308h188q0 -62 -17 -119t-49 -124t-44 -101q72 -14 102 -46q0 2 28 61t28 61l8 20l4 10l4 10q6 14 11 29t9 31l2 10l2 10l4 10q2 12 4 22l2 10q2 12 4 20q0 2 2 10q4 28 6 54q2 10 2 22v10q2 8 2 12v32v12v22q-2 26 -4 54q-2 20 -6 42 q-2 12 -4 22l-4 20l-2 10l-2 10l-4 10q-4 18 -8 32l-6 20l-2 10q-6 14 -12 30l-4 8l-8 20l-4 10l-12 28l-14 28l-6 10l-14 26l-6 10l-6 8l-6 8l-4 10l-6 8l-6 8l-6 8q-22 30 -46 58l-12 16l-22 22l-14 16l-8 6l-8 8l-30 28l-16 14l-8 6q-26 20 -50 38l-10 4l-26 18l-8 6 l-10 4l-18 12q-204 112 -438 112h-22h-24q-4 -2 -10 -2q-24 0 -44 -4q-6 0 -12 -1t-10 -1t-12 -2l-32 -4q-12 -4 -22 -6l-10 -2q-12 -2 -22 -4l-32 -8l-20 -8l-10 -2q-16 -6 -30 -12l-10 -2l-20 -8l-10 -4l-10 -4l-10 -6l-18 -8l-20 -10l-18 -10l-28 -16l-10 -4l-16 -12 l-10 -6l-18 -10l-8 -6q-18 -14 -34 -26l-8 -6l-16 -14l-30 -28l-24 -20l-14 -16l-8 -6l-6 -8l-14 -16l-6 -8l-14 -16l-12 -16l-8 -8l-12 -18l-6 -8l-12 -16l-10 -18l-6 -8l-6 -10l-4 -8l-6 -10l-10 -18l-4 -10q-12 -22 -22 -46l-4 -10q-8 -14 -12 -28l-4 -10l-4 -10 q-4 -16 -10 -30l-6 -20l-8 -32l-2 -10l-4 -20q-4 -16 -6 -32q-2 -8 -2 -10v-12q-4 -20 -6 -42v-10v-12q-2 -8 -2 -10v-34zM234 882q10 122 56 232q86 40 172 72q-38 -152 -44 -304h-184zM262 196q0 -86 64 -147t152 -61h276q68 0 123 37t79 97h96q22 -60 77 -97t123 -37h276 q90 0 153 61t63 147t-63 148t-153 62h-276q-68 0 -123 -38t-77 -96h-96q-24 58 -79 96t-123 38h-276q-88 0 -152 -62t-64 -148zM362 197q0 47 34 80t82 33h276q50 0 84 -34l4 -4h-128q-32 0 -55 -22t-23 -53t23 -53t55 -22h128q-34 -38 -88 -38h-276q-48 0 -82 33t-34 80z M384 1274l14 16l2 2q22 28 48 54l2 2q20 18 38 34l2 2l6 6l2 2l24 18l2 2l18 12q-24 -54 -42 -110q-58 -18 -116 -40zM530 882q6 172 60 346q176 50 354 56v-402h-414zM632 1350q32 82 74 166q114 44 238 54v-178q-158 -6 -312 -42zM1056 882v402q176 -6 354 -58 q50 -170 56 -344h-410zM1056 1392v178q124 -10 238 -54q42 -84 74 -166q-156 36 -312 42zM1164 122h130q30 0 53 22t23 53t-23 53t-53 22h-130q36 38 88 38h276q50 0 83 -33t33 -80t-33 -80t-83 -33h-276q-52 0 -88 38zM1458 1426l4 -4l6 -4l2 -2l6 -4l8 -6l4 -4l4 -4l4 -2 l14 -12l2 -2l2 -2l6 -6l6 -4l2 -2l6 -4l2 -4l6 -4l2 -4l4 -4l4 -2l4 -6l4 -2l4 -4l4 -4l4 -4l16 -20l4 -4l2 -2l6 -8l2 -2l4 -6l10 -12q-58 24 -116 42q-18 54 -42 112zM1536 1186q86 -32 174 -74l6 -12q40 -104 50 -218h-188q-6 154 -42 304z" />
<glyph unicode="9" d="M120 -12h58h1644h58v58v1642v60h-58h-1644h-58v-60v-1642v-58zM238 104v1526h1524v-1526h-1524zM374 398h1252v1096h-1252v-1096zM530 906v78h158v-78h-158zM640 642l112 110l54 -56l-110 -110zM640 1250l56 56l110 -112l-54 -54zM780 940q0 92 64 156t156 64t156 -64 t64 -156t-64 -156t-156 -64t-156 64t-64 156zM960 476v156h80v-156h-80zM960 1258v156h80v-156h-80zM1194 696l54 56l112 -110l-56 -56zM1194 1194l110 112l56 -56l-112 -110zM1312 906v78h158v-78h-158z" />
<glyph unicode="&#x3c;" d="M120 612l822 -620v308h352v626h-352v312zM1372 300h156v626h-156v-626zM1606 300h118v626h-118v-626zM1802 300h78v626h-78v-626z" />
<glyph unicode="&#x3e;" d="M120 306h78v626h-78v-626zM276 306h118v626h-118v-626zM472 306h156v626h-156v-626zM706 306h352v-314l822 626l-822 622v-308h-352v-626z" />
<glyph unicode="A" d="M141 727q0 -161 79 -313q84 -156 254 -266t420 -152q32 -5 61 -5q67 0 115 29q76 46 86 154l2 4v4q-2 28 -11 85t-11 79t-2 39.5t2 30.5q4 20 12 28l2 2l4 2q58 64 142 70h8q41 0 174 -16q40 -5 75 -5q78 0 131 25q112 50 172 210l2 2q18 53 18 109q0 75 -33 153 q-57 136 -187 238l-2 2h-2q-218 138 -430 196q-149 42 -288 42q-95 0 -186 -20q-182 -38 -320 -147t-214 -261q-73 -154 -73 -319zM252 732q0 136 62 264q64 130 182 223t276 127q79 17 163 17q124 0 259 -37q192 -54 396 -182q104 -82 147 -185q26 -62 26 -119 q0 -37 -11 -70q-44 -116 -112 -148q-32 -14 -86 -14q-29 0 -64 4q-12 2 -46 7t-49 7t-52 4t-53 -2q-128 -8 -216 -102q-38 -32 -48 -90q-4 -25 -4 -56q0 -21 2 -44q4 -34 13 -88t9 -66q-6 -50 -34 -68q-21 -12 -56 -12q-20 0 -44 4q-228 38 -375 133t-219 229 q-66 128 -66 264zM413 961q17 59 70 89q34 19 70 19q21 0 42 -6q59 -17 89 -71q19 -34 19 -71q0 -21 -6 -42q-17 -59 -71 -89q-34 -19 -71 -19q-20 0 -41 6q-58 17 -88 71q-19 34 -19 71q0 21 6 42zM453 540q15 52 62 78q30 16 62 16q18 0 37 -5q52 -15 78 -62 q16 -30 16 -62q0 -18 -5 -37q-15 -52 -62 -78q-30 -16 -62 -16q-18 0 -37 5q-52 15 -78 62q-16 30 -16 62q0 18 5 37zM803 1154q17 60 71 89q35 19 72 19q20 0 41 -6q59 -16 88 -70q18 -34 18 -70q0 -21 -6 -43q-17 -59 -70 -89q-34 -19 -70 -19q-21 0 -42 6q-59 17 -89 70 q-19 34 -19 71q0 20 6 42zM1229 1094q13 44 53 66q26 14 53 14q15 0 31 -4q44 -12 66 -52q14 -26 14 -54q0 -15 -4 -31q-12 -45 -53 -67q-27 -14 -54 -14q-15 0 -31 4q-44 12 -66 53q-14 26 -14 53q0 16 5 32z" />
<glyph unicode="B" d="M136 576q0 -4 2 -5t4 -3t6 -4q2 -2 4 -2l12 -10l106 -62l856 -494q13 -3 25 -3q16 0 30 6q23 11 25 37q2 2 2 4v2v16v124q2 292 2 994q-2 20 -14 35t-32 18q-5 1 -9 1q-15 0 -27 -8l-8 -4l-114 -68l-854 -496q-30 -20 -30 -44q0 -16 14 -34zM194 556zM794 576q2 -4 4 -5 t4 -3l4 -4q2 -2 4 -2l14 -10l106 -62l856 -494q13 -3 24 -3q16 0 30 6q24 11 26 37v4v2v16q0 38 2 124v994q0 20 -13 35t-32 18q-4 1 -9 1q-14 0 -28 -8l-6 -4l-116 -68l-854 -496q-29 -20 -29 -44q0 -16 13 -34zM854 556z" />
<glyph unicode="C" d="M146 184q18 -60 62 -104t104 -66q61 -23 129 -23q58 0 119 17q134 36 212 130q66 80 66 167q0 31 -8 63q-26 94 -118 148q42 8 112 30l28 -8q186 -158 474 -236q88 -24 206 -46q54 -10 98 -12h16q34 0 61 7q33 9 55 17t43 30t30 33t29 37l-850 228l844 226q-14 24 -25 38 t-31 33t-43 29t-56 18q-26 6 -60 6h-17q-44 -2 -100 -12q-118 -22 -206 -46q-286 -78 -472 -236l-24 -6q-86 24 -108 28q92 54 118 148q8 32 8 63q0 87 -66 167q-78 94 -212 130q-60 16 -120 16q-68 0 -127 -22t-104 -66t-61 -104q-9 -33 -9 -65q0 -87 67 -167 q78 -94 210 -128q44 -12 132 -25t132 -25q-46 -12 -135 -26t-133 -26q-134 -34 -212 -128q-66 -81 -66 -169q0 -31 8 -63zM266 217q-3 9 -3 19q0 35 35 76q56 66 156 94q42 10 86 12q54 0 96 -16q62 -24 74 -66q3 -9 3 -19q0 -35 -35 -77q-56 -66 -156 -93q-47 -13 -90 -13 q-48 0 -90 16q-64 24 -76 67zM270 973q12 43 76 67q42 14 94 14q44 0 88 -12q100 -26 154 -92q35 -43 35 -79q0 -9 -2 -17q-11 -42 -75 -66q-43 -16 -91 -16q-43 0 -91 13q-100 27 -156 93q-35 41 -35 76q0 10 3 19z" />
<glyph unicode="D" d="M158 1664l4 -1600v-56v-20h1680v20v56v1378l-224 222h-80v80h-1080v-80h-150h-150zM362 94v680v60h1280v-20v-720h-1280zM538 1060v604h916v-604h-916zM1098 1172q0 -14 11 -25t27 -11h154q16 0 27 11t11 25v384q0 16 -11 27t-27 11h-154q-16 0 -27 -11t-11 -27v-384z " />
<glyph unicode="E" d="M254 857q8 -29 35 -43t55 -6l292 84l28 8l16 26l136 254q10 18 10 37t-10 36t-27 26t-37 9t-37 -11t-27 -27l-122 -228l-262 -74q-28 -8 -43 -35q-10 -18 -10 -36q0 -10 3 -20zM536 20q32 -27 86 -27q18 0 39 3q83 12 115 64q56 88 170 299t144 261q2 8 -9 26t-13 22 q0 22 -12 40q-24 38 -70 38q-26 0 -47 -14t-29 -36zM686 1494q0 -68 49 -118t117 -50t117 50t49 118t-49 117t-117 49t-117 -49t-49 -117zM705 1213q0 -28 20 -49q21 -22 51 -22l522 -12l166 -258q16 -26 46 -32t55 10t32 46t-9 54l-188 292q-6 10 -8 14t-7 9l-6 6 q-1 1 -6 4t-7 3t-11 3t-17 5l-558 2q-30 0 -52 -21q-23 -22 -23 -54zM736 1286l154 -666h394l-162 666h-386zM1090 620l124 -304l18 -58h62h370q34 0 59 24t25 59t-25 60q-23 23 -54 23h-5h-310l-86 256q-8 26 -31 42t-51 16q-42 -2 -66 -36q-32 -46 -32 -71q0 -6 2 -11z " />
<glyph unicode="F" d="M122 46q0 -20 13 -35t32 -18q4 -1 9 -1q14 0 28 8l8 4l114 68l854 494q30 20 30 45q0 17 -14 35q-2 2 -3 4t-4 4t-5 4q-2 0 -4 2l-14 8l-106 62l-854 496q-13 3 -25 3q-16 0 -30 -6q-23 -11 -27 -37v-4v-4v-16v-124q-2 -290 -2 -992zM782 46q0 -20 13 -35t32 -18 q4 -1 9 -1q14 0 26 8l8 4l116 68l854 494q29 20 29 45q0 16 -13 35l-4 4l-4 4l-4 4q-2 0 -4 2l-14 8l-106 62l-856 496q-13 3 -24 3q-16 0 -30 -6q-24 -11 -26 -37v-4v-4v-16q-2 -36 -2 -124v-992zM1136 664h2h-2zM1796 664z" />
<glyph unicode="G" d="M440 348q0 -148 105 -253t253 -105h314q100 0 208 56t158 130l238 374q36 56 69 167q16 55 16 88q0 34 -17 45q-28 18 -59 18q-13 0 -27 -3q-46 -11 -72 -53l-92 -140q-35 -50 -51 -50q-13 0 -13 34v162v6v6v648q0 52 -33 88t-79 36q-90 0 -90 -112v-49q0 -426 -34 -477 q-3 -4 -6 -4l-26 86q-24 178 -24 578q0 52 -22 82t-68 30t-78 -34t-32 -84q0 -624 -34 -674q-2 -2 -3 -2q-8 0 -15 60q-16 136 -16 466q0 58 -23 96t-67 38q-46 0 -79 -39t-33 -95q0 -376 -34 -498q-6 -20 -12 -20q-8 0 -12 44q-8 68 -8 228q0 112 -90 112q-46 0 -79 -35 t-33 -85v-432v-276v-158z" />
<glyph unicode="H" d="M112 876q0 -180 70 -344t188 -282t282 -188t344 -70t344 70t282 188t188 282t70 344t-70 344t-188 282t-282 188t-344 70t-344 -70t-282 -188t-188 -282t-70 -344zM322 876q0 182 90 338t246 246t338 90q220 0 396 -130l-940 -940q-130 176 -130 396zM600 332l940 940 q130 -176 130 -396q0 -182 -90 -338t-246 -246t-338 -90q-220 0 -396 130z" />
<glyph unicode="J" d="M120 408q0 172 121 293t293 121t294 -121t122 -293t-122 -294t-294 -122t-293 122t-121 294zM506 574l782 782l196 -194l-782 -782zM1050 1328q0 172 122 294t294 122t293 -122t121 -294t-121 -293t-293 -121t-294 121t-122 293z" />
<glyph unicode="L" d="M382 -4l72 42q92 52 356 214t308 186l18 32l470 812l12 22l-10 22l-120 240l-6 12l-12 6l-256 150l-12 6h-14l-268 -18l-24 -2l-12 -22l-482 -834l-6 -10v-12l-12 -762zM480 356zM482 480l6 318l210 14l232 -134l94 -190l-334 -198zM526 894l426 738l228 14l232 -134 l102 -206l-426 -738l-80 162l-8 14l-12 6l-256 148l-12 8l-14 -2zM668 882l80 -46l482 834l-80 46zM926 734l80 -46l482 834l-80 46z" />
<glyph unicode="M" d="M160 1276l130 130l150 -150l142 142l-150 150l128 128h-400v-400zM164 -8h400l-128 128l150 150l-142 142l-150 -150l-130 130v-400zM540 516q0 -58 41 -99t99 -41h640q58 0 99 41t41 99v640q0 58 -41 99t-99 41h-640q-58 0 -99 -41t-41 -99v-640zM660 516v640 q0 20 20 20h640q20 0 20 -20v-640q0 -20 -20 -20h-640q-20 0 -20 20zM1416 1396l142 -142l150 150l130 -130v400h-400l128 -128zM1420 268l150 -150l-128 -128h400v400l-130 -132l-150 152z" />
<glyph unicode="O" d="M192 804q0 -218 108 -404t295 -295t405 -109t405 109t295 295t108 404t-108 403t-288 293q-30 18 -66 18q-52 0 -88 -37t-36 -89q0 -30 18 -62t44 -46q124 -76 198 -203t74 -277q0 -232 -162 -394t-394 -162t-394 162t-162 394q0 158 80 289t214 203q28 14 48 47t20 65 q0 52 -36 88t-88 36h-6q-30 0 -56 -14q-194 -104 -311 -295t-117 -419zM888 1014v594q0 56 37 96t89 40t89 -40t37 -96v-594q0 -56 -37 -96t-89 -40t-89 40t-37 96z" />
<glyph unicode="P" d="M456 48q0 -20 13 -35t32 -18q4 -1 9 -1q14 0 26 8l8 4l116 68l856 496q30 20 30 45q0 17 -14 35l-4 4l-4 4l-4 4q-2 2 -4 2l-14 10l-106 62l-858 496q-13 3 -25 3q-16 0 -30 -6q-23 -11 -25 -37v-4v-4q0 -4 -2 -16v-124v-996zM1472 670z" />
<glyph unicode="Q" d="M122 472h480l600 -480v1600l-302 -204l80 -80l-200 -220l200 -200l-180 -180l-200 200l-200 -200l-180 180l220 220l-2 4h-316v-640zM306 880l78 -78l214 214l214 -214l78 78l-214 214l214 214l-78 78l-214 -214l-214 214l-78 -78l214 -214zM1302 506l86 -132 q104 68 166 178t62 240t-62 240t-166 178l-86 -132q72 -46 114 -121t42 -165t-42 -165t-114 -121zM1444 284l86 -132q160 104 254 273t94 367t-94 367t-254 273l-86 -132q128 -82 203 -216t75 -292t-75 -292t-203 -216z" />
<glyph unicode="R" d="M380 612q0 256 182 438t438 182t438 -182t182 -438t-182 -438t-438 -182t-438 182t-182 438z" />
<glyph unicode="S" d="M380 72v1080q0 34 23 57t57 23h1080q34 0 57 -23t23 -57v-1080q0 -34 -23 -57t-57 -23h-1080q-34 0 -57 23t-23 57z" />
<glyph unicode="T" d="M320 1400q0 -34 23 -57t57 -23h1200q34 0 57 23t23 57t-23 57t-57 23h-2q2 10 2 20q0 58 -41 99t-99 41h-280v40q0 34 -23 57t-57 23h-200q-34 0 -57 -23t-23 -57v-40h-280q-58 0 -99 -41t-41 -99q0 -10 2 -20h-2q-34 0 -57 -23t-23 -57zM392 1150l240 -1120 q2 -18 16 -29t32 -11h640q18 0 32 11t16 29l240 1120q2 6 2 12q0 15 -11 29q-15 19 -39 19h-1120q-24 0 -39 -19q-11 -14 -11 -29q0 -6 2 -12z" />
<glyph unicode="U" d="M196 -12q9 -1 64 -1t156 1l640 6q202 2 374 102t273 272t101 373t-101 374t-273 273t-374 100h-160v-374h160q158 0 266 -108t108 -265t-108 -265t-266 -108h-860v-380zM456 1298l440 -350v700z" />
<glyph unicode="V" d="M170 528q0 -24 16 -42q392 -494 805 -494h3q414 2 820 502q16 20 16 44v10q0 24 -16 44q-392 494 -805 494h-3q-414 -2 -820 -504q-16 -18 -16 -44v-10zM328 534q348 410 678 412h3q328 0 663 -402q-348 -412 -678 -412h-3q-329 0 -663 402zM720 548q0 -116 82 -198 t198 -82t198 82t82 198q0 96 -58 170l-182 -90l70 178q-52 22 -110 22q-116 0 -198 -82t-82 -198z" />
<glyph unicode="W" d="M500 1356q0 -116 103 -285t199 -239q-96 -72 -198 -240t-102 -284q-2 -29 -2 -56q0 -60 12 -108h980q11 47 11 120q0 21 -1 44q0 116 -103 284t-199 240q96 72 198 240t102 284q2 28 2 54q0 72 -16 134h-978q-12 -50 -12 -114q0 -35 4 -74zM522 1584h950q1 6 1 12 q0 28 -29 66q-36 46 -62 46h-760q-28 0 -64 -45t-36 -79zM524 104q-2 -28 35 -72t63 -44h760q28 0 64 44t34 72h-956zM634 236q-9 36 -9 74q0 103 68 220q93 160 209 218q44 30 44 80t-44 80q-138 106 -223 251q-58 99 -58 191q0 44 13 86h734q8 -34 8 -72q0 -63 -23 -134 q-37 -114 -107 -202t-144 -120q-52 -30 -52 -76t52 -84q279 -246 279 -434q0 -40 -13 -78h-734z" />
<glyph unicode="X" d="M236 234l284 -282l480 480l480 -480l284 282l-482 482l482 480l-284 282l-480 -480l-480 480l-284 -282l482 -480z" />
<glyph unicode="a" d="M368 432l238 64l18 -68l-238 -64zM492 182l174 174l50 -48l-174 -174zM708 502q30 -74 114 -120q70 -40 134 -40q13 0 26 2l650 1126q-22 66 -83 116t-133 50q-30 0 -58 -8zM752 10l64 238l68 -18l-64 -238zM960 236l64 -238l68 18l-64 238zM1284 1302l122 212q18 6 34 8 q52 0 72 -68l-122 -212z" />
<glyph unicode="b" d="M160 -8l812 92l-186 190l374 374l-102 -20l-80 -16l16 80l24 112l-112 -24l-80 -16l16 80l22 112l-106 -20l-316 -318l-192 186zM896 1074l26 4l80 16l-16 -80l-22 -112l112 24l80 16l-16 -80l-24 -112l112 22l70 14l260 260l192 -186l90 812l-812 -90l186 -192z" />
<glyph unicode="c" d="M120 832v320h240v-320h-240zM200 232v160h720v-160h-720zM280 672v160h640v-160h-640zM280 672v600h160v-600h-160zM280 1112v160h720v-160h-720zM440 -8v320h320v-320h-320zM440 1192v320h320v-320h-320zM760 232v600h160v-600h-160zM880 352v320h200v-320h-200z M1160 -8v240h720v-240h-720z" />
<glyph unicode="d" d="M140 852l374 -300v188h374v-374h-188l300 -374l300 374h-188v374h374v-188l374 300l-374 300v-188h-374v374h188l-300 374l-300 -374h188v-374h-374v188z" />
<glyph unicode="e" d="M414 362l12 -22q25 -45 25 -111q0 -48 -13 -107l-8 -30l28 -16l120 -70l28 -16l24 24q94 98 192 98h26l12 20l408 708l60 -34q22 -14 47 -14q8 0 17 2q24 0 44 16q18 12 30 32q13 23 13 48q0 14 -4 28q-11 40 -47 62l-160 92q76 86 168 120q66 26 111 92t58 144 q4 24 4 49q0 55 -20 111q-29 82 -101 134q-48 22 -107 23h-4q-57 0 -115 -27q-60 -28 -109 -70t-77 -106q-23 -53 -23 -108q0 -12 1 -24q6 -28 6 -59q0 -65 -26 -143l-160 92q-23 13 -48 13q-14 0 -28 -4q-40 -11 -60 -47q-12 -20 -14 -42q-4 -24 8 -44q12 -32 42 -50 l62 -34l-410 -708zM538 154q0 10 6 37t8 37t4 32t1 35t-5 31t-12 34l380 658l244 -140l-380 -658q-16 0 -29 -4t-23 -7t-23 -11t-20 -12t-21 -16t-19 -16t-22 -20t-21 -20z" />
<glyph unicode="g" d="M140 -8h286v192h-286v-192zM140 280h286v190h-286v-190zM140 566h286v192h-286v-192zM140 852h286v192h-286v-192zM140 1140h286v96h-286v-96zM618 -8h286v192h-286v-192zM618 280h286v190h-286v-190zM618 566h286v192h-286v-192zM618 852h286v192h-286v-192zM618 1140 h286v190h-286v-190zM618 1426h286v96h-286v-96zM1096 -8h286v192h-286v-192zM1096 280h286v190h-286v-190zM1096 566h286v192h-286v-192zM1096 852h286v192h-286v-192zM1574 -8h286v192h-286v-192zM1574 280h286v190h-286v-190zM1574 566h286v192h-286v-192zM1574 852h286 v96h-286v-96z" />
<glyph unicode="j" d="M120 46q0 -20 13 -35t32 -18t37 7l6 4l116 68l456 264v-121v-169q0 -20 12 -35t32 -19h10q14 0 26 8l8 4l114 68l646 374v-352q0 -34 23 -57t57 -23h80q34 0 57 23t23 57v1040q0 32 -23 56t-57 24h-80q-34 0 -57 -24t-23 -56v-352l-766 444q-13 3 -25 3q-16 0 -30 -6 q-23 -11 -25 -37q0 -2 -1 -4t-1 -4v-16v-124v-146l-576 334q-13 3 -26 3q-17 0 -30 -6q-24 -11 -26 -37v-4v-2v-2v-16v-124q-2 -296 -2 -992z" />
<glyph unicode="l" d="M220 88q0 -80 11 -90t89 -10h1360q80 0 90 11t10 89v720q0 42 -29 72t-71 30t-71 -30t-29 -72v-620h-1160v620q0 42 -30 72t-72 30q-40 -2 -69 -31t-29 -71v-720zM440 974l84 -98l430 -506l46 -54l46 54l430 506l84 98h-130h-198v630v60h-60h-344h-60v-60v-630h-198h-130 zM700 854h128h60v60v630h224v-630v-60h60h128l-300 -354z" />
<glyph unicode="m" d="M158 1530l150 -150l-128 -128h400v400l-130 -132l-150 152zM162 132l142 -140l150 150l130 -132v398q42 -36 94 -36h640q54 0 94 34v-394l130 132l150 -152l142 142l-150 150l128 128h-394q40 42 40 100v640q0 56 -40 96h398l-128 128l150 152l-142 140l-150 -150 l-130 130v-396q-42 40 -98 40h-640q-56 0 -98 -42t-42 -98v-640q0 -60 44 -102h-398l128 -128zM658 512v640q0 20 20 20h640q20 0 20 -20v-640q0 -20 -20 -20h-640q-20 0 -20 20z" />
<glyph unicode="o" d="M508 1334h212v-370v-432h212v432v370h210l-312 422zM858 418l312 -422l322 422h-212v370v432h-212v-432v-370h-210z" />
<glyph unicode="p" d="M120 88q0 -34 23 -57t57 -23h80q34 0 57 23t23 57v350l766 -442q13 -3 25 -3q16 0 30 6q23 11 25 37q2 2 2 3v3v16v124v146l576 -332q13 -3 26 -3q17 0 30 6q24 11 26 37v4v2v16q0 32 2 124v994q0 20 -13 35t-32 18t-37 -7l-6 -4l-116 -68l-456 -264q2 14 2 119v171 q-2 20 -14 35t-32 17q-4 2 -10 2q-14 0 -26 -8l-8 -4l-114 -68l-646 -374v352q0 34 -23 57t-57 23h-80q-34 0 -57 -23t-23 -57v-1040z" />
<glyph unicode="q" d="M160 -8h400v160h-240v240h-160v-160v-240zM160 552h160v200h-160v-200zM160 912h160v200h-160v-200zM160 1272h160v240h240v160h-400v-240v-160zM720 -8h200v160h-200v-160zM720 1512h200v160h-200v-160zM1080 -8h200v160h-200v-160zM1080 1512h200v160h-200v-160z M1440 -8h400v240v160h-160v-240h-240v-160zM1440 1512h240v-240h160v400h-400v-160zM1680 552h160v200h-160v-200zM1680 912h160v200h-160v-200z" />
<glyph unicode="r" d="M156 834q0 -160 63 -318t183 -280q162 -162 380 -219q109 -29 218 -29l218 29q218 57 380 219q120 122 183 280t63 318t-63 318t-183 278q-168 168 -398 224l50 190l-512 -174l358 -406l52 194q176 -40 306 -170q188 -190 188 -455t-188 -453t-454 -188t-454 188 t-188 453t188 455l-144 142q-120 -120 -183 -278t-63 -318z" />
<glyph unicode="s" d="M142 124h532q40 0 68 28l504 504h308v-120l304 216l-304 224v-130h-346q-40 0 -68 -28l-504 -504h-494v-190zM142 656h494l124 -124l134 134l-152 152q-28 28 -68 28h-532v-190zM988 304l152 -152q28 -28 68 -28h346v-128l304 222l-304 218v-122h-308l-124 124z" />
<glyph unicode="u" d="M420 72v1080q0 34 23 57t57 23h280q34 0 57 -23t23 -57v-1080q0 -34 -23 -57t-57 -23h-280q-34 0 -57 23t-23 57zM1140 72v1080q0 34 23 57t57 23h280q34 0 57 -23t23 -57v-1080q0 -34 -23 -57t-57 -23h-280q-34 0 -57 23t-23 57z" />
<glyph unicode="w" d="M160 -4h1040v720h-400h-80v80v160h-560v-960zM320 156v480h720v-480h-720zM800 796h1040v960h-1040v-960zM800 796h400v160h-400v-160zM960 956v480h720v-480h-720z" />
<glyph unicode="&#xad;" d="M120 168q-8 -80 44 -131t132 -44t142 69l362 362q70 70 72 158q2 24 -2 50l84 84q164 -126 376 -113t362 163q166 166 166 399t-165 397t-398 164t-399 -164q-148 -150 -162 -360t110 -374l-86 -88q-12 2 -24 2q-100 12 -182 -70l-362 -360q-62 -64 -70 -144zM896 1165 q0 165 117 281t282 116t282 -116t117 -281t-117 -282t-282 -117t-282 117t-117 282zM1096 1102v120h400v-120h-400z" />
<glyph unicode="&#x2000;" horiz-adv-x="922" />
<glyph unicode="&#x2001;" horiz-adv-x="1844" />
<glyph unicode="&#x2002;" horiz-adv-x="922" />
<glyph unicode="&#x2003;" horiz-adv-x="1844" />
<glyph unicode="&#x2004;" horiz-adv-x="614" />
<glyph unicode="&#x2005;" horiz-adv-x="460" />
<glyph unicode="&#x2006;" horiz-adv-x="306" />
<glyph unicode="&#x2007;" horiz-adv-x="306" />
<glyph unicode="&#x2008;" horiz-adv-x="230" />
<glyph unicode="&#x2009;" horiz-adv-x="368" />
<glyph unicode="&#x200a;" horiz-adv-x="102" />
<glyph unicode="&#x2010;" d="M120 168q-8 -80 44 -131t132 -44t142 69l362 362q70 70 72 158q2 24 -2 50l84 84q164 -126 376 -113t362 163q166 166 166 399t-165 397t-398 164t-399 -164q-148 -150 -162 -360t110 -374l-86 -88q-12 2 -24 2q-100 12 -182 -70l-362 -360q-62 -64 -70 -144zM896 1165 q0 165 117 281t282 116t282 -116t117 -281t-117 -282t-282 -117t-282 117t-117 282zM1096 1102v120h400v-120h-400z" />
<glyph unicode="&#x2011;" d="M120 168q-8 -80 44 -131t132 -44t142 69l362 362q70 70 72 158q2 24 -2 50l84 84q164 -126 376 -113t362 163q166 166 166 399t-165 397t-398 164t-399 -164q-148 -150 -162 -360t110 -374l-86 -88q-12 2 -24 2q-100 12 -182 -70l-362 -360q-62 -64 -70 -144zM896 1165 q0 165 117 281t282 116t282 -116t117 -281t-117 -282t-282 -117t-282 117t-117 282zM1096 1102v120h400v-120h-400z" />
<glyph unicode="&#x2012;" d="M120 168q-8 -80 44 -131t132 -44t142 69l362 362q70 70 72 158q2 24 -2 50l84 84q164 -126 376 -113t362 163q166 166 166 399t-165 397t-398 164t-399 -164q-148 -150 -162 -360t110 -374l-86 -88q-12 2 -24 2q-100 12 -182 -70l-362 -360q-62 -64 -70 -144zM896 1165 q0 165 117 281t282 116t282 -116t117 -281t-117 -282t-282 -117t-282 117t-117 282zM1096 1102v120h400v-120h-400z" />
<glyph unicode="&#x2013;" horiz-adv-x="1024" d="M118 -8v1734h716v-1734h-716z" />
<glyph unicode="&#x2014;" d="M118 -8v1734h1740v-1734h-1740z" />
<glyph unicode="&#x202f;" horiz-adv-x="368" />
<glyph unicode="&#x205f;" horiz-adv-x="460" />
<glyph unicode="&#x2122;" horiz-adv-x="4096" d="M2208 1276l130 130l150 -150l142 142l-150 150l128 128h-400v-400zM2212 -8h400l-128 128l150 150l-142 142l-150 -150l-130 130v-400zM2588 516q0 -58 41 -99t99 -41h640q58 0 99 41t41 99v640q0 58 -41 99t-99 41h-640q-58 0 -99 -41t-41 -99v-640zM2708 516v640 q0 20 20 20h640q20 0 20 -20v-640q0 -20 -20 -20h-640q-20 0 -20 20zM3464 1396l142 -142l150 150l130 -130v400h-400l128 -128zM3468 268l150 -150l-128 -128h400v400l-130 -132l-150 152zM320 1400q0 -34 23 -57t57 -23h1200q34 0 57 23t23 57t-23 57t-57 23h-2q2 10 2 20 q0 58 -41 99t-99 41h-280v40q0 34 -23 57t-57 23h-200q-34 0 -57 -23t-23 -57v-40h-280q-58 0 -99 -41t-41 -99q0 -10 2 -20h-2q-34 0 -57 -23t-23 -57zM392 1150l240 -1120q2 -18 16 -29t32 -11h640q18 0 32 11t16 29l240 1120q2 6 2 12q0 15 -11 29q-15 19 -39 19h-1120 q-24 0 -39 -19q-11 -14 -11 -29q0 -6 2 -12z" />
<glyph unicode="&#xe000;" horiz-adv-x="500" d="M0 0v0v0v0v0z" />
</font>
</defs>
</svg>
