<?xml version="1.0" standalone="no"?>
<!DOCTYPE svg PUBLIC "-//W3C//DTD SVG 1.1//EN" "http://www.w3.org/Graphics/SVG/1.1/DTD/svg11.dtd" >
<svg xmlns="http://www.w3.org/2000/svg">
<metadata>
This is a custom SVG webfont generated by Font Squirrel.
Copyright   : Generated in 2012 by FontLab Studio Copyright info pending
Designer    : Jelio Dimitrov
Foundry URL : httpfontfabriccom
</metadata>
<defs>
<font id="SocialicoRegular" horiz-adv-x="1630" >
<font-face units-per-em="2048" ascent="1536" descent="-512" />
<missing-glyph horiz-adv-x="500" />
<glyph unicode=" " d="M96 729q0 297 211 508t510 211q297 0 508 -210t211 -509t-210 -510t-509 -211t-510 211t-211 510z" />
<glyph unicode="!" d="M96 719q0 297 212 509t509 212t508 -211t211 -510q0 -297 -211 -508t-508 -211q-299 0 -510 211t-211 508zM303 616q0 -49 41 -86v172q-41 -35 -41 -86zM387 508q20 -4 33 -4h10v225q-4 2 -10 2q-12 0 -33 -4v-219zM473 504h43v284q-27 -37 -35 -75l-8 4v-213zM559 504 h43v346q-20 -6 -43 -21v-325zM645 504h43v354q-4 0 -13 1t-13 1q-10 0 -17 -2v-354zM711 504h63v356q-16 -23 -18 -26q-18 10 -45 18v-348zM797 504h407v2q61 2 93 37t32 86t-34.5 87t-86.5 36q-23 0 -49 -11q-10 82 -71.5 137.5t-147.5 55.5t-143 -53v-377z" />
<glyph unicode="$" horiz-adv-x="1628" d="M96 717q0 299 210 509t509 210t509 -210t210 -509t-210 -510t-509 -211t-509 211t-210 510zM401 553h56v170q0 41 10 68q10 23 29 34q20 12 45 13q33 0 45 -19q14 -16 14 -55v-211h57v188q0 53 23 74q27 23 59 23q23 0 33 -9q14 -8 21 -24q6 -12 6 -47v-205h55v223 q0 57 -27 82q-25 27 -75 27q-63 0 -105 -56q-10 27 -32.5 41.5t-61.5 14.5q-37 0 -59 -15q-23 -12 -43 -36v45h-50v-326zM920 713q0 -80 43 -123t116 -43q61 0 97 26q39 29 51 78l-58 6q-16 -37 -34 -49q-23 -16 -56 -16q-43 0 -69 29q-29 29 -31 81h250v15q0 78 -43 125 q-39 43 -108.5 43t-112.5 -45q-45 -43 -45 -127zM983 748q0 43 28.5 67.5t65.5 24.5q45 0 70 -31q20 -23 22 -61h-186z" />
<glyph unicode="&#x26;" horiz-adv-x="1628" d="M96 717q0 299 210 509t509 210t509 -210t210 -509t-210 -510t-509 -211t-509 211t-210 510zM512 807q0 -131 104 -174q18 18 20.5 36.5t-5.5 33t-18.5 36t-12.5 39.5q-12 123 100.5 202t231.5 7q55 -33 70.5 -122t-16.5 -170t-97 -95q-51 -8 -76 16q-39 23 -3 121.5 t17 141.5q-25 55 -78 28.5t-61 -82.5q-4 -20 4 -56t8 -48q0 -43 -27.5 -136t-31.5 -120q-14 -74 -2 -123h-2h51q37 63 76 227q6 4 10 0t8 -11t6 -9q51 -33 120 -22.5t112 46.5q53 45 78.5 127t17.5 162q-10 84 -78.5 149.5t-160.5 75.5q-145 16 -254 -64.5t-111 -215.5z" />
<glyph unicode="(" horiz-adv-x="1628" d="M96 721q0 299 211 510t508 211t508 -211t211 -510t-210 -509t-509 -210t-509 210t-210 509zM465 721q0 -143 103.5 -246.5t246.5 -103.5t246.5 103.5t103.5 246.5q0 145 -102 247.5t-247.5 102.5t-248 -102.5t-102.5 -247.5zM535 721q0 117 81.5 198.5t198.5 81.5 q115 0 198 -81.5t83 -198.5q0 -115 -83 -197t-198 -82q-117 0 -198.5 82t-81.5 197zM676 686l139 -139l139 139h-69v211h-140v-211h-69z" />
<glyph unicode=")" d="M96 719q0 297 210 508t509 211t510 -211t211 -508t-211 -508t-510 -211t-509 211t-210 508zM346 764h154v-287q0 -14 10 -24.5t25 -10.5h350l-109 111h-166v211h154l-209 229zM748 995l108 -110h166v-211h-156l211 -230l209 230h-153v287q0 14 -10.5 24t-24.5 10h-350z " />
<glyph unicode="," d="M96 713q0 299 211 510t508 211q299 0 510 -211t211 -510q0 -297 -211 -508t-510 -211t-509 210t-210 509zM463 813q-12 -29 2 -51q10 -25 43 -31l12 -2l166 21q2 16 19 34l-103 74l-31 12q-33 8 -63 -10q-31 -10 -45 -47zM506 594l2 -12q8 -14 37 -19q29 -2 61 12l8 7 l35 28q6 6 20.5 19.5t22.5 21.5l-4 8l-6 23l-92 -16q-2 0 -35 -15q-37 -16 -47 -47zM618 432q0 -23 11 -39q12 -29 49 -39q29 -8 63 8q31 14 43 48v12v45q-6 43 -10 125q-12 2 -37 14l-96 -114q-8 -8 -18 -33zM635 1006q-4 -27 12 -62l6 -12l103 -111l16 6l-22 136 q-2 12 -15 36q-20 39 -51 50q-18 6 -27 -2q-22 -12 -22 -41zM723 707q0 -35 25 -56q18 -23 53 -22q31 0 53 22q23 20 23 56q0 31 -23 53q-20 20 -53 20t-53 -20q-25 -24 -25 -53zM827 592l17 -98l14 -39q18 -41 51 -52q18 0 27 7q16 4 25 41q2 29 -15 59l-6 12l-31 37 l-47 49l-16 -8zM829 997l2 -47l11 -129q16 -8 35 -20l102 127q10 18 16 35l4 24q0 16 -8 41q-16 31 -53 37q-33 12 -66 -4q-35 -20 -41 -53zM901 647l121 -98q12 -16 33 -19q33 -12 63 5q31 14 39 51l4 22q0 31 -18 49q-10 20 -41 33l-12 2l-46 -2l-131 -10l-4 -14zM905 762 l2 -4l2 -8l142 16q14 2 39 10q43 20 53 51l2 11l-4 14q-10 23 -39 27q-35 4 -62 -11l-14 -4l-117 -98z" />
<glyph unicode="-" d="M96 719q0 297 210 508t509 211t510 -211t211 -508q0 -299 -211 -510t-510 -211t-509 211t-210 510zM501 824.5q-9 -19.5 15 -48.5h2l119 -145l-62 -176q-10 -35 4.5 -48.5t47.5 3.5l188 94l189 -94q33 -16 48 -3t3 48l-60 176l119 145h2q23 29 13.5 48.5t-46.5 19.5h-155 l-76 157q-16 35 -36.5 35t-37.5 -35l-73 -157h-158q-37 0 -46 -19.5z" />
<glyph unicode="." d="M96 717q0 299 211 510t508 211q299 0 510 -211t211 -510q0 -297 -211 -508t-510 -211t-509 210t-210 509zM485 717q0 -135 97.5 -231.5t232.5 -96.5q137 0 233.5 96.5t96.5 231.5q0 137 -96.5 233.5t-233.5 96.5q-135 0 -232.5 -96.5t-97.5 -233.5zM553 716.5 q0 108.5 77 186.5t185.5 78t186 -78t77.5 -186.5t-77.5 -185t-186 -76.5t-185.5 76.5t-77 185zM674 598q2 -20 17.5 -34.5t35.5 -10.5q23 4 36 20.5t11 36.5v2v172l133 25v-139q-8 4 -24 4q-23 -4 -36 -20.5t-11 -37t17 -34t35.5 -11.5t35 19.5t12.5 38.5v2v252l-191 -33 v-199q-8 4 -24 4q-20 -2 -34.5 -19.5t-12.5 -37.5z" />
<glyph unicode="/" d="M96 717q0 299 210 509t509 210t510 -211t211 -508q0 -299 -211 -510t-510 -211t-509 211t-210 510zM434 720.5q0 -63.5 44 -108.5t108 -45q25 0 51 11l147 -136l414 334v205q0 2 -1 4t-1 4l-405 -430l-64 107q10 27 10 55q0 63 -44 107t-107.5 44t-107.5 -44t-44 -107.5z " />
<glyph unicode="0" d="M96 725q0 299 210 509t509 210t510 -211t211 -508q0 -299 -211 -510t-510 -211q-297 0 -508 211t-211 510zM455 502q66 25 116 24q59 0 134 -43q43 141 65 226q-4 4 -12 8t-13 8q-53 25 -98 25h-12q-43 -2 -98 -21q-6 -4 -19 -8zM541 799q66 27 121 26q63 0 126 -43 l66 224q-51 29 -75.5 35t-55.5 6q-51 0 -121 -29zM764 449q68 -45 131 -45.5t133 30.5l62 211q-61 -18 -119 -18q-88 0 -144 43zM848 741q66 -43 139 -43q59 0 123 29v2h4l62 217q-61 -25 -121 -24q-76 0 -142 43z" />
<glyph unicode="1" d="M96 725q0 299 211 509t510 210q297 0 508 -210t211 -509t-211 -510t-508 -211q-299 0 -510 211t-211 510zM477 623h238v-236h203v236h237v202h-237v238h-203v-238h-238v-202z" />
<glyph unicode="2" d="M96 717q0 297 209 506t504 213h14q297 -4 505 -213t208 -506q0 -299 -211 -509t-508 -210q-299 0 -510 211t-211 508zM453 733q0 -51 35.5 -87t86.5 -36q45 0 80 29l248 -125v-6q0 -51 36 -87t87 -36t87 36t36 87t-36 87t-87 36q-41 0 -80 -29l-248 123v8v6l248 125 q35 -29 80 -28q51 0 87 35.5t36 87t-36 86t-87 34.5t-87 -34.5t-36 -86.5v-8l-248 -125q-37 31 -80 31q-51 0 -86.5 -36t-35.5 -87z" />
<glyph unicode="3" horiz-adv-x="1628" d="M96 719q0 299 211 510t508 211t508 -211t211 -510q0 -297 -210 -508t-509 -211t-509 211t-210 508zM420 909q-31 -96 50 -228t190.5 -221t166.5 -89q41 0 114 55t142.5 134t109.5 177.5t17 171.5q-49 160 -204 160q-61 0 -105.5 -32.5t-64.5 -65.5l-21 -35l-20 35 q-18 33 -62.5 65.5t-105.5 32.5q-70 0 -126 -39t-81 -121z" />
<glyph unicode="4" horiz-adv-x="1628" d="M96 715q0 297 208 506t503 213h16q295 -4 503 -213t208 -506t-210 -508t-509 -211t-509 211t-210 508zM467 723q0 -47 12 -90q6 6 154.5 140t154.5 140q-4 2 -65 58.5t-66 60.5q-88 -45 -139 -128t-51 -181zM492 594q45 -109 145 -168v299q-86 -72 -145 -131zM672 406 q57 -27 110 -29h66q90 8 166 60t114 134h-456v-165zM694 1049q4 -4 131 -120t133 -122v233q-68 31 -143 31q-60 1 -121 -22zM995 608h150q18 55 18 115q0 90 -45 170t-123 127v-412z" />
<glyph unicode="5" d="M96 723q0 299 211 510t508 211q299 0 510 -211t211 -510t-211 -509t-510 -210t-509 211t-210 508zM414 410l225 67v-92h330l-97 291h158q82 0 139.5 57.5t57.5 139t-57.5 139t-139.5 57.5q-74 0 -129 -48t-65 -120h-7q-10 72 -65 120t-129 48q-82 0 -138.5 -57.5 t-56.5 -139.5q0 -80 56.5 -137t136.5 -59h6v-66l-225 60v-260zM580 872.5q0 22.5 16 39t38.5 16.5t39 -16.5t16.5 -39t-16.5 -39t-39 -16.5t-38.5 16.5t-16 39zM979 872.5q0 22.5 16.5 39t39 16.5t39 -16.5t16.5 -39t-16.5 -39t-39 -16.5t-39 16.5t-16.5 39z" />
<glyph unicode="6" d="M96 717q0 299 212 510t509 211t508 -211t211 -510t-211 -509t-508 -210q-299 0 -510 211t-211 508zM322 717q0 -121 86 -208t208 -87q139 0 228 108l-37 88q-61 -115 -191 -114q-88 0 -151.5 62.5t-63.5 150.5q0 90 63.5 152.5t151.5 62.5q66 0 120.5 -35t76.5 -92 l94 -215l11 -25q61 -139 196 -139q86 0 142.5 48t56.5 124q0 70 -35 104.5t-117 63.5q-8 2 -29.5 9t-29.5 10t-23.5 9.5t-21.5 11.5t-13.5 13t-10.5 18.5t-3 22.5q0 33 22.5 54.5t57.5 21.5q49 0 84 -47l63 33q-49 86 -143 86q-74 0 -117 -41t-43 -109q0 -66 41 -101.5 t135 -66.5q39 -12 56.5 -20t32 -25.5t14.5 -44.5q0 -43 -35 -70.5t-88 -25.5q-51 2 -76.5 26.5t-48.5 75.5q-92 215 -96 225q-37 86 -108.5 134.5t-164.5 48.5q-123 0 -208.5 -87t-85.5 -210z" />
<glyph unicode="7" d="M96 711q0 297 212 509t509 212t508 -211t211 -510q0 -297 -211 -508t-508 -211q-299 0 -510 211t-211 508zM565 809q0 -92 58.5 -161.5t146.5 -88.5l51 -203l51 203q88 18 145.5 89t57.5 161q0 104 -74.5 179t-179.5 75q-106 0 -181 -75t-75 -179zM631 809q0 78 55 134 t135 56q78 0 134.5 -56t56.5 -134q0 -80 -56.5 -135.5t-134.5 -55.5q-80 0 -135 55.5t-55 135.5zM715 809q0 -45 30.5 -76t75.5 -31q43 0 74 31t31 76q0 43 -31 73.5t-74 30.5q-45 0 -75.5 -30.5t-30.5 -73.5z" />
<glyph unicode="8" d="M96 721q0 297 211 508t510 211q297 0 508 -210t211 -509t-210 -510t-509 -211t-510 211t-211 510zM530 641q68 -252 285 -264q246 10 283 260q10 76 -6 192q2 -14 -4.5 -30.5t-14.5 -26.5l-6 -10q-6 61 -65.5 136t-114.5 120l-56 45q-2 -27 -38.5 -63.5t-92 -88 t-84.5 -92.5q-27 -37 -38 -83t-13 -75.5t-6 -31.5q-6 -2 -13 1t-11 7z" />
<glyph unicode="9" d="M96 719q0 297 211 508t510 211q297 0 508 -211t211 -508q0 -299 -210 -510t-509 -211t-510 211t-211 510zM385 682q-4 -59 36 -96t107 -31q20 4 31 10q8 4 20.5 14.5t16.5 12.5q-27 -115 37 -115h47q4 25 10 69t8 54q2 12 10.5 55t10.5 68q4 59 -26.5 93t-88.5 38 q-104 8 -172 -59q-45 -52 -47 -113zM494.5 707q7.5 43 31.5 61q10 10 31 12q29 0 39 -8q23 -18 16.5 -63t-30.5 -64q-33 -25 -70 -4q-25 23 -17.5 66zM748 647q-8 -49 2 -65q16 -20 90 -17q14 78 28 189q10 47 0 61q-12 23 -92 23v-2q-4 -25 -14 -89.5t-14 -99.5zM782 895 q6 -23 30 -30t44 3q49 18 35 64q-6 20 -37 26h-18q-64 -20 -54 -63zM895 618q-2 -37 22.5 -47t73.5 -8q4 23 11.5 68t11.5 65q6 -10 18 -31.5t19 -31.5q29 -49 43 -60q29 -20 70.5 -7.5t45.5 44.5q-27 6 -42 19.5t-33.5 48.5t-20.5 39q10 12 66.5 65.5t66.5 63.5 q-14 0 -38.5 1t-43 1t-32.5 -6q-10 -4 -31 -25q-10 -8 -55 -59q-12 -16 -29 -29q2 23 12 78t12 80q2 39 -21.5 49t-76.5 8v-4q-4 -29 -16.5 -105.5t-22.5 -140.5t-10 -76z" />
<glyph unicode="?" d="M96 719q0 299 211 510t508 211q299 0 510 -212t211 -509t-211 -508t-510 -211t-509 211t-210 508zM471 772q0 -78 66.5 -141.5t173.5 -87.5q-27 -96 -62 -117q18 0 49 4t99.5 33t107.5 78q113 23 183.5 86t70.5 145q0 100 -100.5 171t-243.5 71t-243.5 -71t-100.5 -171z M784 963h9q115 0 196.5 -56.5t81.5 -136.5q0 -55 -42 -101t-109 -69q102 59 102 158q0 78 -68 135.5t-170 69.5z" />
<glyph unicode="@" d="M96 719q0 297 212 509t509 212t508 -211t211 -510q0 -297 -211 -508t-508 -211q-299 0 -510 211t-211 508zM546.5 686q16.5 -92 65.5 -162q57 -88 105 -86q20 0 52 14.5t58.5 14.5t58.5 -13.5t54 -13.5q45 0 102 82q8 12 16.5 26.5t13.5 27t9 21.5t6 15l3 6 q-6 0 -24.5 11.5t-43.5 45.5t-25 79q0 39 19.5 70.5t33 43t21.5 15.5q-45 66 -123 65q-31 4 -76 -13t-53 -17q-10 0 -48 15t-62 13q-92 0 -140 -84q-39 -84 -22.5 -176zM813 956q59 -6 100 48q41 47 35 108q-57 -4 -98 -51q-43 -52 -37 -105z" />
<glyph unicode="A" horiz-adv-x="1570" d="M98 384q0 7 5.5 9t15.5 -2q313 -180 682 -180q254 0 483 92q2 0 37 14q12 4 22.5 -1t10.5 -14t-11 -17q-33 -29 -59 -41q-217 -133 -498 -133q-397 0 -682 262q-6 4 -6 11zM477 748q0 180 158 239q55 31 166 45q82 8 110 8v21q0 84 -18 108q-29 39 -80 39h-12 q-90 -10 -111 -92q-10 -25 -24 -24l-146 14q-25 10 -18 33q20 113 104 166t195 59h30q141 0 224 -74q12 -12 22 -26.5t17.5 -26.5t11.5 -31.5t7 -30t4 -35t1 -32.5v-37v-35v-233q0 -63 60 -135q10 -23 -4 -37q-27 -25 -115 -96q-10 -12 -33 -5q-43 35 -84 97 q-76 -74 -141 -92q-51 -14 -103 -15q-98 0 -159.5 59.5t-61.5 168.5zM690 774q0 -49 24.5 -77.5t67.5 -28.5h19q55 18 82 69q29 41 28 156v29q-78 0 -110 -9q-111 -33 -111 -139zM1225 379q31 20 59 31q47 12 91 12q14 0 28 -1q57 -5 65 -20q8 -8 9 -22v-6 q-4 -47 -28 -105.5t-65 -93.5q-8 -8 -13 -8t-7 6q-2 4 2 8q44 108 44 152q0 15 -5 22q-10 13 -64 13q-24 0 -57 -2q-12 -2 -31.5 -4.5t-23.5 -2.5q-6 0 -10 3q-3 2 -3 5q0 7 9 13z" />
<glyph unicode="B" horiz-adv-x="1286" d="M96 600v608q0 49 36 85t87 36q49 0 85 -36t36 -85v-608q0 -102 71.5 -173t172.5 -71h121q102 0 172.5 61.5t70.5 149.5t-38 150.5t-83 62.5h-243q-51 0 -87 36t-36 87q0 49 35.5 85t87.5 36h243q152 0 258.5 -133t106.5 -324q0 -188 -142.5 -322t-344.5 -134h-121 q-203 0 -345.5 143t-142.5 346z" />
<glyph unicode="C" horiz-adv-x="1490" d="M96 586v178q0 10 9.5 19.5t19.5 9.5h313l-135 -236h-178q-29 0 -29 29zM199 166l14 119q0 10 9 14t18 0l77 -45q23 -16 5 -33l-101 -65q-22 -19 -22 10zM254 373l358 618q10 25 41 13l76 -46q25 -12 12 -40l-358 -619q-10 -25 -41 -12l-76 45q-16 8 -16 23q0 8 4 18z M616 557l136 236h77l111 -236h-324zM707 1284q0 16 8 21q2 1 3 0q13 0 39 -37q30 -43 84 -137.5t72 -124.5q82 -125 244 -449q14 -23 -1 -43t-36 -27q-4 -2 -12 -5t-11 -4t-10.5 -2t-13.5 1t-14 6q-25 12 -225 465q-4 10 -20.5 47t-28 61.5t-28 63.5t-26.5 66.5t-17 54.5 t-7 43zM1092 793h276q29 0 29 -29v-178q0 -29 -29 -29h-156q-2 2 -4 11.5t-6 13.5q-20 41 -26 55q-12 20 -42 76.5t-42 79.5zM1114 395q-9 10 -9 19q0 13 19 24l45 23q9 5 17 5q15 0 22 -20l37 -69q12 -29 -10 -49l-33 -19q-27 -12 -45 13zM1212 211q-15 20 -15 39 q0 21 20 41q27 15 47 14q26 0 42 -22q28 -41 25 -99l-4 -55q-4 12 -50.5 33.5t-64.5 48.5z" />
<glyph unicode="D" horiz-adv-x="1388" d="M96 719q0 248 175 423t423 175t424 -175t176 -423t-176 -424t-424 -176t-423 175t-175 425zM197 694q4 -178 131 -313q152 229 417 319q-14 25 -30 72q-227 -82 -449 -82q-10 0 -33.5 2t-35.5 2zM199 793h67q211 0 406 71q-84 156 -207 297q-104 -55 -175 -152t-91 -216z M401 311q139 -92 293 -92q90 0 158 25q-14 178 -74 362q-236 -80 -377 -295zM565 1198q117 -145 199 -297q145 63 276 176q-145 139 -346 140q-63 -1 -129 -19zM807 809q6 -14 17.5 -41t17.5 -41q100 18 162 18q84 0 190 -26q0 147 -88 280q-141 -118 -299 -190zM874 631 q51 -152 74 -342q190 111 236 332q-100 23 -180 22q-67 0 -130 -12z" />
<glyph unicode="E" horiz-adv-x="1644" d="M96 268v903h436q164 0 236 -96q41 -57 41 -135q0 -86 -45 -133q-16 -27 -66 -51q72 -31 103 -82q37 -59 37 -133t-41 -144q-29 -43 -66 -69q-31 -27 -100 -49q-66 -10 -129 -11h-406zM303 426h193q61 0 92 16q59 27 59 113q0 70 -59 96q-23 14 -88 15h-197v-240zM303 817 h193q55 0 96 23q37 20 37 78q0 61 -49 83q-51 14 -107 15h-170v-199zM907 614q0 164 90 258q86 88 232 89q82 0 151 -29q70 -37 111 -96q41 -68 51 -136q8 -61 8 -127h-473q0 -94 68 -135q35 -27 92 -26q53 0 94 30q23 14 35 43h172q-6 -59 -61 -116q-80 -92 -244 -93 q-129 0 -229 76q-97 82 -97 262zM1044 1042v93h361v-93h-361zM1081 684h291q-6 63 -43 104q-45 33 -100 33q-68 0 -103 -37q-33 -39 -45 -100z" />
<glyph unicode="F" horiz-adv-x="862" d="M96 674v239h193v119q0 131 84 222.5t202 91.5h193v-236h-193q-18 0 -32.5 -21.5t-14.5 -52.5v-123h240v-239h-240v-582h-239v582h-193z" />
<glyph unicode="G" horiz-adv-x="854" d="M96 358q0 131 133 207q-23 51 -22 107q0 66 26 119q-104 84 -104 213q0 115 80 195.5t192 80.5q72 0 146 -47l198 110v-184l-96 -51q37 -45 37 -104q0 -115 -81 -196t-195 -81h-9q-10 0 -10 -55q0 -31 10 -56h27q137 0 234.5 -74.5t97.5 -183t-97.5 -183.5t-234.5 -75 t-234.5 74.5t-97.5 183.5zM281 358q0 -41 43 -69.5t104 -28.5t104 28.5t43 69.5t-43 71t-104 30t-104 -30t-43 -71zM281 1004q0 -55 37.5 -92.5t91 -37.5t91.5 37t38 93q0 53 -38 91t-91.5 38t-91 -38t-37.5 -91z" />
<glyph unicode="H" horiz-adv-x="1427" d="M96 991q0 141 98.5 239.5t239.5 98.5q106 0 184 -55q31 8 93 8q236 0 401.5 -166t165.5 -397q0 -53 -2 -78q57 -86 57 -192q0 -141 -98 -239.5t-240 -98.5q-100 0 -180 51q-53 -12 -104 -12q-236 0 -402 166.5t-166 402.5q0 57 9 88q-56 78 -56 184zM372 521 q-2 -9 -2 -18q0 -48 50 -97q63 -59 139 -87q58 -20 146 -20q27 0 57 2q143 6 236 107q61 66 61 135q0 37 -17 75q-14 37 -40.5 66t-53 46.5t-70.5 33.5t-73 23.5t-84 19.5t-80 18q-90 22 -90 78q0 55 74 86q35 16 75 17q55 -2 106.5 -37t86.5 -67q33 -30 54 -30h3 q51 6 66 61q3 10 3 21q0 45 -50 93q-109 95 -278 94q-28 0 -58 -2q-100 -10 -171 -72.5t-79 -171.5q-1 -10 -1 -20q0 -91 87 -148q96 -63 223 -82q98 -16 154 -55q28 -20 28 -46q0 -25 -26 -55q-35 -41 -93 -46q-17 -2 -33 -1q-37 0 -65 9q-39 12 -67 28q-12 6 -37 35 t-52.5 49.5t-58.5 18.5q-59 -5 -70 -61z" />
<glyph unicode="I" horiz-adv-x="1232" d="M96 1243.5q0 59.5 41 101t98.5 41.5t99.5 -41.5t42 -101t-41 -100.5t-100 -41q-57 0 -98.5 41t-41.5 100.5zM121 225v793h229v-793h-229zM461 225v793h229v-37q62 30 135 30h14q81 -3 146 -38q68 -39 111 -113t43 -151v-484h-226v484q0 16 -12 38.5t-27 26.5 q-32 14 -62 14q-13 0 -26 -3q-41 -9 -69 -31l-27 -21v-508h-229z" />
<glyph unicode="J" horiz-adv-x="1886" d="M98 472q-1 14 -1 28q0 44 9 99q12 73 45 135.5t105 126t176 106.5l-100 198l243 31l82 -166q6 0 15 2q172 29 323 29q382 0 641 -180q109 -78 156 -150l-778 -221l-180 364q55 9 110 10q66 0 133 -14l74 -139l264 70l-18 12q-12 8 -53 29.5t-84 39t-109 35t-131 24.5 q-38 4 -82 4q-31 0 -66 -2q-82 -5 -159 -28l213 -432l-779 -225q-4 10 -11 28.5t-20.5 75t-17.5 110.5zM345 578q0 -27 7 -43l6 -19l258 72l-114 235q-61 -39 -99 -85t-48 -84q-10 -42 -10 -76z" />
<glyph unicode="K" horiz-adv-x="1636" d="M96 590v766h262v-373q193 111 461 111q297 0 510 -144.5t213 -345.5q0 -205 -212 -349t-511 -144q-293 0 -503 139t-220 340zM358 604q0 -137 135.5 -232.5t326 -95.5t325.5 95.5t135 232.5q0 135 -135 231.5t-325.5 96.5t-326 -96.5t-135.5 -231.5zM516 604 q0 90 88 151.5t215 61.5q125 0 214 -62.5t89 -150.5q0 -90 -89 -153.5t-214 -63.5q-127 0 -215 63.5t-88 153.5z" />
<glyph unicode="L" horiz-adv-x="1572" d="M96 516q95 -95 247 -95h3q154 1 262 111q-14 -3 -26 -2q-47 0 -66 37q-6 12 -6 23q0 33 57 59q-14 -1 -26 -1q-102 0 -146 87q35 33 97 37q-137 27 -156 135q44 13 71 13h13q-117 60 -117 158v14q178 -66 354 -154q29 -16 107 -86q88 252 213 336q0 -20 -19 -45 q47 47 107 53q-2 -29 -74 -55q4 2 21.5 8t34 11t35 9.5t31.5 4.5t15 -8.5t-4 -15.5t-18 -12t-24.5 -9.5t-23.5 -7.5t-14 -3q-6 -2 -17 -6t-17 -6q10 1 20 1q85 0 160 -60q84 -68 113 -173q6 -25 6 -28q25 -8 54 -8q17 0 36 3q51 7 76 23q-39 -84 -152 -92q44 -20 103 -20 q25 0 53 4q-53 -61 -162 -62q-41 -168 -190.5 -285.5t-330.5 -154.5q-66 -13 -134 -13q-119 0 -244 41q-197 64 -322 234z" />
<glyph unicode="M" horiz-adv-x="1259" d="M96 590v244q0 59 40 99t97 40q45 0 81 -30t48 -77q59 74 154 74q68 0 122 -42t71 -105q74 74 188 73q111 0 189.5 -77.5t78.5 -188.5v-500h-534v279h-322v211h-213zM111 1143q0 47 33.5 80.5t80.5 33.5t81 -33.5t34 -80.5q0 -49 -34 -84t-81 -35t-80.5 35t-33.5 84z M365 1143q0 61 44 106t107 45q61 0 106.5 -45t45.5 -106q0 -63 -45 -107.5t-107 -44.5q-63 0 -107 44.5t-44 107.5zM700 1143q0 80 57.5 137t139.5 57t138.5 -57t56.5 -137q0 -84 -56.5 -141.5t-138.5 -57.5t-139.5 58.5t-57.5 140.5z" />
<glyph unicode="N" horiz-adv-x="1626" d="M96 719q0 131 92.5 222t221.5 91q131 0 222 -91t91 -222t-91 -222t-222 -91q-129 0 -221.5 91t-92.5 222zM907 719q0 129 91.5 221t220.5 92t221 -91t92 -222t-92 -222t-221 -91t-220.5 92t-91.5 221z" />
<glyph unicode="O" horiz-adv-x="835" d="M96 809v145q76 27 115 58q41 33 70 90q23 41 36 129h144v-238h239v-184h-239v-264q0 -92 8 -111q10 -25 41 -45q27 -18 76 -18q84 0 155 49v-164q-70 -29 -118 -43q-55 -12 -117 -12q-45 0 -111 18q-53 18 -92 53q-43 33 -51 70q-16 31 -16 107v360h-140z" />
<glyph unicode="P" horiz-adv-x="1431" d="M96 217l248 1135h557q141 0 239 -102q69 -72 69 -187q0 -46 -11 -98q-39 -172 -165 -272.5t-296 -100.5h-231l-82 -375h-328zM225 80l15 59h274l80 375h233q170 0 297 100.5t164 272.5q10 48 10 91q0 69 -26 126q66 -76 66 -186q0 -44 -11 -93q-37 -172 -165 -272 t-296 -100h-235l-78 -373h-328zM551 809h154h8q59 2 111.5 47t68.5 109q0 10 4 14q1 8 1 18q0 20 -5 45q-27 78 -111 78h-161z" />
<glyph unicode="Q" horiz-adv-x="1363" d="M98 782q10 238 187.5 409t416.5 171q242 0 408 -171q158 -163 158 -386v-23q-6 -150 -82 -276.5t-199 -206.5q77 -97 147 -97q4 0 9 1v-99q-6 -4 -16.5 -8t-42.5 -12q-28 -7 -54 -7h-6q-29 1 -66.5 17.5t-66.5 50.5q-31 35 -62 84q-78 -27 -165 -26q-242 0 -408 169 q-158 161 -158 388v22zM389 793v-17q0 -166 80 -284q84 -125 209 -125q43 0 74 14q-4 8 -13.5 24.5t-13.5 22.5q-18 27 -45 37t-45 6l-17 -2v100q6 2 17.5 6.5t44.5 7.5q11 1 22 1q22 0 42 -4q32 -6 71 -32t70 -71q104 129 110 316q0 8 1 16q0 165 -80 284q-83 124 -209 124 q-123 0 -215.5 -124t-102.5 -300z" />
<glyph unicode="R" horiz-adv-x="1441" d="M96 264.5q0 69.5 48.5 117.5t118 48t117.5 -48t48 -117.5t-48 -118t-117.5 -48.5t-118 48.5t-48.5 118zM96 686v240q342 0 585 -244t243 -584h-244q0 244 -170 414q-174 174 -414 174zM96 1110v240q340 0 628 -168t456 -456t168 -628h-240q0 274 -136 507t-369 369 t-507 136z" />
<glyph unicode="S" horiz-adv-x="1667" d="M96 506v203h254v-203q0 -33 22.5 -56.5t55.5 -23.5t54.5 23.5t21.5 56.5v461q0 135 97 233t235 98q135 0 232 -98t97 -233v-93l-151 -47l-105 47v93q0 31 -21.5 54t-52 23t-53 -23.5t-22.5 -53.5v-471q0 -137 -97.5 -229.5t-234.5 -92.5t-234.5 97.5t-97.5 234.5z M909 496v209l105 -48l151 48v-209q0 -33 21.5 -55.5t54.5 -22.5t55.5 22.5t22.5 55.5v202h254v-202q0 -139 -96.5 -235.5t-235.5 -96.5q-135 0 -233.5 97.5t-98.5 234.5z" />
<glyph unicode="T" horiz-adv-x="1093" d="M96 641v502q0 57 41 98t99 41q61 0 101 -40t40 -99v-139h483q57 0 98 -42t41 -104q0 -57 -40.5 -98t-98.5 -41h-483v-78q0 -82 53 -144.5t123 -62.5h309q59 0 98 -39t39 -100q0 -57 -40.5 -98t-98.5 -41h-313q-186 0 -318.5 142t-132.5 343z" />
<glyph unicode="U" horiz-adv-x="1396" d="M96 506v444q0 158 111.5 271.5t269.5 113.5h268q82 -10 170.5 -69.5t124.5 -141.5q25 -49 37 -129q2 -10 5 -31.5t5.5 -30.5t6.5 -21.5t12 -18.5q18 -18 88 -20.5t78 -6.5l18 -14l13 -23v-14v-309q0 -158 -113 -271.5t-270 -113.5h-443q-158 0 -269.5 113.5t-111.5 271.5 zM410 508q0 -29 21.5 -51.5t51.5 -22.5h432q31 0 52.5 22.5t21.5 51.5q0 31 -21.5 52.5t-52.5 21.5h-432q-31 0 -52 -21.5t-21 -52.5zM410 948q0 -31 21.5 -52.5t51.5 -21.5h211q31 0 52.5 22t21.5 52q0 29 -21.5 51.5t-52.5 22.5h-211q-31 0 -52 -22.5t-21 -51.5z" />
<glyph unicode="V" horiz-adv-x="1613" d="M96 1012q10 12 27.5 31.5t69 70.5t100.5 92t113.5 80t115.5 49q17 4 34 4q35 0 61 -18q40 -27 62.5 -88.5t35 -117.5t26 -142t21.5 -125q43 -160 66.5 -221.5t52.5 -61.5q61 0 198 254q34 63 34 114q0 44 -26 78q-28 37 -73 37q-43 0 -101 -34q29 180 191 276 q99 59 190 59q42 0 82 -12q137 -41 142 -202v-16q0 -32 -7 -68q-27 -156 -114.5 -317t-195 -279.5t-197 -198.5t-150.5 -119q-45 -32 -89 -32q-18 0 -36 6q-61 18 -104 59t-68 92q-25 49 -123 371.5t-121 347.5q-13 15 -35 15q-43 0 -120 -58l-4 -4z" />
<glyph unicode="W" horiz-adv-x="1441" d="M96 713q0 123 56 254l299 -815q-160 76 -257.5 227.5t-97.5 333.5zM201 1055q84 129 221 204.5t299 75.5q246 0 424 -161h-12q-43 0 -73 -34t-30 -77q0 -51 62 -148q53 -96 53 -170q0 -72 -49 -202l-62 -207l-225 668l70 8q25 4 22.5 27.5t-27.5 23.5q-98 -8 -165 -8 l-166 8q-25 0 -27 -23.5t23 -27.5q35 -4 67 -8l96 -265l-137 -409l-225 674l70 8q27 4 24.5 27.5t-26.5 23.5q-100 -8 -166 -8h-41zM547 115l184 542l193 -524l2 -2q2 -4 4 -4q-90 -37 -209 -37q-100 0 -174 25zM1034 174l191 549q49 121 49 225q0 45 -4 64q78 -145 78 -299 q0 -170 -86.5 -313.5t-227.5 -225.5z" />
<glyph unicode="X" horiz-adv-x="1261" d="M96 571v74h269v-74h-93v-450h-84v450h-92zM180 1329h96l66 -231h4l64 231h98l-115 -338v-239h-98v227zM397 184v324h78v-295q0 -6 2 -13t2 -10q4 -4 19 -4q10 0 22 8.5t21 18.5v295h77v-387h-77v45q-20 -27 -43 -37q-23 -12 -45 -12q-29 0 -41 14q-15 22 -15 53zM516 858 v221q0 49 33 82q41 29 96 29t88 -33q33 -27 33 -78v-221q0 -57 -33 -84q-35 -35 -92 -35t-92 35q-33 31 -33 84zM604 850q0 -12 8 -25q10 -12 29 -12q14 0 27 12q10 10 10 25v233q0 16 -10 23q-14 10 -27 10q-20 0 -27 -10q-10 -6 -10 -23v-233zM678 121v524h78v-166 q12 12 32 25q10 8 37 8q33 0 56 -23q18 -33 18 -73v-213q0 -37 -18 -64q-16 -23 -52 -22q-20 0 -41 8q-20 12 -32 25v-29h-78zM756 195q6 -8 18 -15q2 0 8 -2t11 -2q8 0 22 10q2 4 2 27v199q0 23 -6 30q-6 10 -23 11q-4 0 -9 -2t-9 -2q-2 -2 -7 -5.5t-7 -5.5v-243zM836 821 v359h90v-330q0 -18 2 -21q8 -8 18 -8t27 10q14 8 26 23v326h88v-428h-88v47q-12 -14 -53 -41q-33 -14 -47 -15q-31 0 -47 23q-16 20 -16 55zM940 231v175q0 47 33 79.5t84 32.5q53 0 82 -29q29 -35 28 -83v-101h-147v-74q0 -33 8 -41q6 -10 27 -10q12 0 24 6q8 8 8 45v19h80 v-19q0 -57 -28 -92q-29 -29 -88 -28q-49 0 -82 32q-29 35 -29 88zM1020 369h67v37q0 20 -8 36q-12 6 -24 7q-14 0 -27 -7q-8 -8 -8 -36v-37z" />
<glyph unicode="Y" horiz-adv-x="1904" d="M96 1124v109h764v-8q2 0 2 -4l-2 -15v-82h-229q45 -66 106.5 -147.5t127 -164.5t79.5 -103l305 276h-184l-25 107h670l-2 -7h2l-47 -71h-4l-19 -29h-120q-37 -8 -41 -8q-39 -8 -238 -170t-215 -213q-2 -9 -2 -56q0 -35 1 -92q3 -131 7 -157q12 -2 117.5 -2t122.5 -2 l-4 -78q-33 4 -394 4q-35 0 -176 -4t-174 -4l11 73q6 0 61 1.5t100 7.5t60 22q10 10 10 133t-6 154q-8 33 -191.5 257t-246.5 273h-226zM1571 215v111l65 -9l60 -4l-15 -110l-59 4zM1585 879q18 -6 111.5 -14.5t113.5 -8.5l-118 -465l-103 8z" />
<glyph unicode="Z" horiz-adv-x="1146" d="M96 274q219 59 307 250q8 12 15 82q10 137 51 216t123 122q47 -29 88 -33v-10q0 -31 6 -41l8 -18l19 -8q53 -18 109 -18q80 0 167 36l51 -113q-76 -41 -138 -56q-59 -14 -90 -14h-4q-32 1 -87 11h-27q-31 0 -45 -41q0 -12 5 -22.5t12 -14.5l6 -4l16 -8q14 -6 37 -19.5 t53.5 -34t65.5 -51t69.5 -67.5t71.5 -90.5t68 -112.5l-129 -78q-86 166 -322 271q-4 0 -9 3t-9 3q-18 0 -29 -15l-23 -26q-47 -63 -79.5 -99t-111.5 -85.5t-181 -75.5zM410 1165.5q0 69.5 48 117.5t117.5 48t117.5 -48t48 -117.5t-48 -118t-117.5 -48.5t-117.5 48.5t-48 118 z" />
<glyph unicode="a" d="M96 719q0 297 211 508t510 211q297 0 508 -211t211 -508q0 -299 -211 -510t-508 -211t-509 212t-212 509zM434 543q0 -4 4 -8q158 -145 379 -146q158 0 277 74q12 6 32 22q12 6 4 17q-6 6 -16 2q-4 0 -10 -4t-10 -4q-129 -51 -269 -52q-205 0 -379 101q-10 6 -12 -2z M645 743q0 -61 34 -94t89 -33q25 0 57 9q39 12 78 51q25 -37 47 -53q12 -4 19 2q25 18 63 53q10 10 2 20q-33 41 -33 76v129v18v17v16q0 12 -1 18l-3 15q-2 10 -4 16.5t-6 14.5t-9 14t-11 12q-47 41 -125 41h-17q-145 -8 -166 -124q-4 -14 11 -19l80 -8q10 0 14 14 q10 43 61 51h6q29 0 46 -22q10 -14 10 -59v-13q-16 0 -62 -4q-61 -8 -92 -24q-88 -36 -88 -134zM764 757.5q0 59.5 61 78.5q18 4 62 4v-17q0 -61 -17 -86q-14 -29 -45 -39h-10q-51 0 -51 59.5zM1061 539q-8 -6 -8 -9.5t10 -3.5q4 2 14 3t17 1q17 1 29 2q32 0 38 -8 q2 -4 3 -11q0 -24 -25 -85q-4 -6 2 -6q1 -1 2 -1l6 3q45 39 51 111v4q0 8 -4 12q-4 8 -36 10q-6 0 -13 1q-26 0 -53 -7q-13 -4 -33 -16z" />
<glyph unicode="b" d="M96 721q0 295 208 506t505 213h14q295 -4 504 -214t209 -505q0 -299 -211 -510t-510 -211q-297 0 -508 211t-211 510zM528 653q0 -113 79 -192.5t192 -79.5h67q113 0 192 74.5t79 179.5q0 106 -59.5 180t-143.5 74h-135q-29 0 -48.5 -20.5t-19.5 -47t19.5 -47t48.5 -20.5 h135q25 0 46 -35t21 -84t-38.5 -83t-96.5 -34h-67q-55 0 -95 39t-40 96v338q0 29 -20.5 48.5t-47.5 19.5t-47.5 -19.5t-20.5 -48.5v-338z" />
<glyph unicode="c" d="M96 719q0 297 211 508t510 211q297 0 508 -211t211 -508q0 -299 -211 -510t-508 -211t-509 212t-212 509zM455 645q0 -16 16 -16h98l76 131h-174q-16 0 -16 -17v-98zM512 412q0 -14 12 -6l56 36q10 10 -2 19l-43 24q-4 4 -9.5 1t-5.5 -9zM543 526q-3 -6 -3 -10 q0 -8 9 -12l43 -25q16 -8 22 6l199 344q8 16 -6 23l-43 25q-16 8 -23 -7zM743 629h181l-62 131h-43zM799 1044q-3 -1 -4 -8q0 -34 69 -190q111 -250 125 -258q12 -6 35 2q12 4 20.5 15t-0.5 24q-90 180 -135 250q-10 16 -25.5 42.5t-27.5 47t-24.5 40t-20.5 28.5q-7 8 -11 8 q0 -1 -1 -1zM1008 760q8 -14 24.5 -45t22.5 -41q2 -8 14 -31q2 -2 4 -8l2 -6h86q16 0 17 16v98q0 16 -17 17h-153zM1020 539l24 -41q10 -14 25 -6l18 10q12 10 7 26l-21 39q-5 11 -14 11q-4 0 -8 -3l-25 -12q-10 -6 -10 -14q0 -4 4 -10zM1075 436q10 -14 36 -25.5t28 -19.5 v7q0 1 0.5 12t0.5 15q0 8 -1 14q-2 9 -5.5 23.5t-10.5 18.5t-18 7q-3 1 -6 1q-10 0 -22 -8q-11 -11 -11 -22t9 -23z" />
<glyph unicode="d" d="M96 719q0 297 210 508t509 211t510 -211t211 -508q0 -299 -211 -510t-510 -211t-509 211t-210 510zM483 719q0 -139 97.5 -236.5t234.5 -97.5q139 0 236.5 98.5t97.5 235.5t-98.5 234.5t-235.5 97.5t-234.5 -97.5t-97.5 -234.5zM539 705q8 0 20 -1.5t19 -1.5 q121 0 249 46q6 -18 17 -39q-147 -51 -232 -179q-69 75 -73 175zM541 760q23 139 147 205q70 -84 115 -166q-109 -39 -225 -39h-37zM653 492q80 121 209 163q33 -98 41 -200q-41 -14 -88 -15q-86 1 -162 52zM743 985q41 10 72 10q111 0 193 -77q-70 -61 -154 -99 q-48 86 -111 166zM879 768q88 41 165 106q49 -76 50 -155q-66 14 -107 14q-39 0 -90 -10q-4 6 -10 22.5t-8 22.5zM915 670q37 6 72 6q49 0 100 -12q-27 -123 -131 -185q-14 109 -41 191z" />
<glyph unicode="e" d="M96 721q0 295 209 505t504 214h14q297 -2 505 -213t208 -506q0 -299 -211 -510t-508 -211t-509 211t-212 510zM414 469h225q37 0 72 6q37 10 55 27q23 16 37 39q23 39 22 80q0 39 -20 73q-16 29 -57 45q27 14 36 29q25 27 25 74q0 43 -23 76q-41 53 -131 53h-241v-502z M528 557v133h109q35 0 49 -8q33 -14 33 -53q0 -49 -33 -64q-16 -8 -51 -8h-107zM528 774v111h95q27 0 59 -8q27 -12 27 -48q0 -31 -20.5 -43t-53.5 -12h-107zM864 662q0 -100 54 -146q55 -43 126 -43q90 0 136 51q33 35 34 66h-96q-6 -16 -18 -25q-23 -16 -53.5 -16 t-51.5 14q-37 23 -37 76h263q0 37 -4 70q-6 39 -29 75q-23 35 -62 54q-39 16 -84 16q-80 0 -129 -49q-49 -51 -49 -143zM940 899h201v51h-201v-51zM961 700q6 33 24 56q20 20 57 20q31 0 56 -18q23 -23 24 -58h-161z" />
<glyph unicode="f" horiz-adv-x="1628" d="M96 719q0 299 211 510t508 211t508 -211t211 -510q0 -297 -210 -508t-509 -211t-509 211t-210 508zM629 694h106v-323h133v323h133v133h-133v68q0 16 8.5 28.5t18.5 12.5h106v131h-106q-66 0 -113 -51t-47 -123v-66h-106v-133z" />
<glyph unicode="g" horiz-adv-x="1628" d="M96 723q0 297 210 508t509 211t509 -211t210 -508q0 -299 -210 -510t-509 -211t-509 211t-210 510zM631 520q0 -59 53 -101t131 -42t131 42t53 101.5t-53 101.5t-131 42h-14q-6 12 -6 30q0 31 6 31h4q63 0 108 45t45 109q0 33 -20 57l53 29v102l-110 -61q-41 27 -80 26 q-63 0 -107.5 -45t-44.5 -108q0 -72 58 -119q-14 -29 -15 -66q0 -31 13 -59q-74 -43 -74 -115zM733 520.5q0 22.5 23.5 38.5t58.5 16t58.5 -16t23.5 -38.5t-23.5 -39t-58.5 -16.5t-58.5 16.5t-23.5 39zM733 879q0 29 21.5 50t50.5 21t50.5 -21.5t21.5 -49.5 q0 -31 -21.5 -51.5t-50.5 -20.5t-50.5 20.5t-21.5 51.5z" />
<glyph unicode="h" d="M96 719q0 297 211 508t510 211q297 0 508 -211t211 -508t-211 -508t-508 -211q-299 0 -510 211t-211 508zM473 870q0 -59 31 -102q-4 -16 -4 -49q0 -131 92 -223.5t223 -92.5q29 0 57 7q45 -29 101 -29q78 0 133 55.5t55 132.5q0 57 -33 107q2 14 2 43q0 129 -92 221 t-223 92q-35 0 -51 -4q-43 31 -102 31q-78 0 -133.5 -55.5t-55.5 -133.5zM666 643q16 0 31.5 -11t29.5 -26.5t21 -19.5q16 -8 37.5 -15.5t53 -4.5t52.5 26q15 17 15 31t-16 25q-32 22 -85 30q-72 10 -125 46q-48 32 -48 82q0 6 1 11q4 61 44 96t95 39l32 2q93 0 154 -53 q28 -27 29 -51q0 -6 -2 -11q-8 -30 -37 -34h-1q-13 0 -54 35q-43 37 -84 39q-59 0 -78 -41q-6 -11 -6 -20q0 -25 47 -38q2 -2 4 -2q10 -2 52 -11t57.5 -15.5t44 -17.5t44 -28.5t25.5 -41.5q9 -21 10 -42q0 -39 -34 -75q-51 -55 -131 -60q-14 -1 -27 0q-104 0 -164 58 q-28 29 -27 56q0 40 40 42z" />
<glyph unicode="i" d="M96 721q0 299 210 509t509 210t510 -211t211 -508q0 -299 -211 -510t-510 -211q-297 0 -508 211t-211 510zM535 1048.5q0 -32.5 22.5 -55t55 -22.5t55 22.5t22.5 55t-22.5 56t-55 23.5t-55 -23.5t-22.5 -56zM549 483h127v441h-127v-441zM737 483h127v283q6 6 15.5 12 t38 17.5t49.5 -7.5q8 -2 15 -14t7 -22v-269h125v269q0 43 -23.5 85t-62.5 62q-44 23 -87 23q-39 0 -77 -19v21h-127v-441z" />
<glyph unicode="j" horiz-adv-x="1628" d="M96 719q0 295 208 506t503 213h16q295 -2 503 -213t208 -506q0 -299 -211 -510t-508 -211t-508 211t-211 510zM398 571q3 -47 16 -75l10 -29l432 125l-119 239q69 16 129 16q35 0 67 -5q87 -14 140 -43l55 -31l-147 -39l-41 78q-36 8 -73 8l-62 -6l100 -203l432 123 q-4 6 -10 14.5t-31.5 33t-56.5 43t-83 44t-113.5 34.5t-146.5 14q-17 1 -34 1q-70 0 -147 -16q-4 -2 -8 -2l-45 92l-136 -16l56 -111q-80 -33 -125 -85t-54 -104q-6 -38 -6 -74q0 -13 1 -26zM532 645q0 18 15 55q18 45 74 80l63 -131l-143 -39q-9 22 -9 35z" />
<glyph unicode="k" d="M96 719q0 297 208 506t505 213h14q297 -4 505 -213t208 -506t-211 -508t-510 -211t-509 211t-210 508zM440 653q4 -111 122 -188.5t280 -77.5q166 0 283.5 81t117.5 193.5t-117.5 192.5t-283.5 80q-145 0 -256 -62v207h-146v-426zM586 661.5q0 75.5 74.5 129t181 53.5 t181.5 -53.5t75 -129t-75 -129t-181.5 -53.5t-181 53.5t-74.5 129zM674 662q0 -51 49 -86t118.5 -35t119 34.5t49.5 86.5q0 49 -49.5 83.5t-119 34.5t-118.5 -34.5t-49 -83.5z" />
<glyph unicode="l" d="M96 719q0 297 211 508t510 211q297 0 508 -211t211 -508t-211 -508t-508 -211q-299 0 -510 211t-211 508zM432 606q70 -94 178 -130q69 -23 136 -23q38 0 74 8q101 20 184 85.5t106 158.5q59 0 90 34q-16 -3 -30 -2q-30 0 -56 11q63 6 84 51q-14 -8 -42 -12.5t-50 1.5 q0 8 -4 17q-16 57 -63 95q-42 34 -89 34h-10l18 6l9 2q6 2 13 4t13 5t10.5 7.5t2.5 8.5q-1 3 -9 3q-17 0 -67 -18q39 16 41 31q-33 -4 -60 -29q10 14 11 25q-68 -47 -119 -186q-39 37 -60 47q-92 47 -196 86q-4 -59 65 -97q-12 2 -47 -6q10 -59 86 -75q-35 -2 -53 -21 q23 -48 79 -48q8 0 17 1q-43 -20 -28.5 -46t51.5 -20q-59 -61 -145.5 -61t-139.5 53z" />
<glyph unicode="m" d="M96 719q0 297 210 508t509 211t510 -211t211 -508t-211 -508t-510 -211t-509 211t-210 508zM518 647h119v-117h178v-155h297v278q0 61 -44 104.5t-105 43.5q-63 0 -105 -41q-10 35 -38.5 58.5t-67.5 23.5q-51 0 -86 -41q-14 59 -72 59q-33 0 -54.5 -22.5t-21.5 -55.5 v-135zM526 954.5q0 -26.5 18.5 -46t45 -19.5t45 19.5t18.5 46t-18.5 45t-45 18.5t-45 -18.5t-18.5 -45zM668 954.5q0 -34.5 24.5 -59.5t59 -25t59.5 25t25 59q0 33 -25 58.5t-59.5 25.5t-59 -24.5t-24.5 -59zM854 954q0 -45 32 -77.5t77 -32.5t76.5 31.5t31.5 78.5 q0 45 -31.5 77t-76.5 32t-77 -32t-32 -77z" />
<glyph unicode="n" d="M96 719q0 297 211 508t510 211q297 0 508 -211t211 -508t-211 -508t-508 -211q-299 0 -510 211t-211 508zM418 719q0 -72 51 -123t123 -51t123 51t51 123t-51 123t-123 51t-123 -51t-51 -123zM868 719q0 -72 50.5 -123t122 -51t122.5 51t51 123t-51 123t-122.5 51 t-122 -51t-50.5 -123z" />
<glyph unicode="o" d="M96 717q0 295 208 506t505 213h14q295 -4 504 -214t209 -505q0 -299 -211 -510t-510 -211q-297 0 -508 211t-211 510zM637 768h78v-201q0 -43 8 -59q6 -18 29 -39q25 -20 51 -29q35 -10 61 -10q35 0 66 6q33 10 65 25v90q-41 -27 -86 -27q-29 0 -43 11q-14 8 -22 24 q-4 10 -4 62v147h133v102h-133v131h-80q-6 -47 -21 -71q-16 -33 -39 -49q-18 -16 -63 -33v-80z" />
<glyph unicode="p" d="M96 715q0 297 210 508t509 211t510 -211t211 -508t-211 -508t-510 -211t-509 211t-210 508zM471 438h182l45 209h129q94 0 165 55.5t91 151.5q6 28 6 53q0 65 -38 106q-53 56 -133 56h-310zM543 362h182l43 207h131q94 0 165 55.5t91 151.5q6 27 6 51q0 61 -37 105 q14 -31 14 -70q0 -24 -5 -51q-20 -96 -91 -151.5t-165 -55.5h-129l-46 -209h-151zM723 768l39 172h90q47 0 61 -43q3 -14 3 -25q0 -4 -1.5 -9t-1.5 -9q-8 -35 -36.5 -59.5t-63.5 -26.5h-4h-86z" />
<glyph unicode="q" d="M96 719q0 299 211 509t510 210q297 0 508 -211t211 -508q0 -299 -210 -510t-509 -211t-510 211t-211 510zM492 754q0 -6 -1 -12q0 -126 89 -216q92 -94 225 -94q51 0 92 14q16 -25 35 -47q25 -31 59 -35q12 -2 22 -2q20 0 36 7l22 8v55q-5 -1 -9 -1q-35 0 -77 54 q70 43 112 114t44 155v11q0 126 -88 216q-92 94 -225.5 94t-232.5 -94t-103 -227zM653 760q4 96 55.5 165.5t121 69.5t116.5 -68q43 -63 44 -152q0 -8 -1 -15q-2 -104 -61 -176q-27 41 -64 53t-61 6l-23 -8v-55q8 2 16 2q25 0 44 -25q2 -4 7 -13t7 -14q-18 -8 -41 -8 q-70 0 -116 70t-44 168z" />
<glyph unicode="r" d="M96 715q0 297 209 506t504 213h14q297 -4 505 -213t208 -506t-211 -508t-508 -211q-299 0 -510 211t-211 508zM496 469q0 -39 26.5 -65.5t65.5 -26.5t65.5 26.5t26.5 65.5t-26.5 65.5t-65.5 26.5t-65.5 -26.5t-26.5 -65.5zM496 702q133 0 229 -96q94 -94 94 -229h135 q0 188 -135 323.5t-323 135.5v-134zM496 938q231 0 396 -165t165 -396h133q0 287 -204 490.5t-490 203.5v-133z" />
<glyph unicode="s" d="M96 721q0 299 210 509t509 210t510 -210t211 -509t-211 -510t-510 -211t-509 211t-210 510zM412 606q0 -78 54 -131t130 -53t130 51t54 127v262q0 16 12.5 29.5t30.5 13.5q16 0 28.5 -13t12.5 -30v-51l58 -27l84 27v51q0 76 -53.5 130.5t-129 54.5t-130 -54.5 t-54.5 -130.5v-256q0 -18 -12.5 -31.5t-30.5 -13.5t-30.5 13.5t-12.5 31.5v113h-141v-113zM864 600q0 -76 54.5 -130t130.5 -54q78 0 131 54t53 130v113h-141v-113q0 -18 -12.5 -30.5t-31 -12.5t-30.5 12.5t-12 30.5v117l-84 -27l-58 27v-117z" />
<glyph unicode="t" d="M96 719q0 297 212 509t509 212t508 -211t211 -510q0 -297 -211 -508t-508 -211q-299 0 -510 211t-211 508zM565 676q0 -113 74 -191.5t176 -78.5h174q33 0 55.5 22.5t22.5 55t-21.5 55t-54.5 22.5h-172q-39 0 -68.5 35t-29.5 80v43h268q33 0 55.5 22.5t22.5 55 t-22.5 56.5t-55.5 24h-268v77q0 33 -22.5 55.5t-55.5 22.5t-55.5 -22.5t-22.5 -55.5v-278z" />
<glyph unicode="u" d="M96 717q0 299 210 509t509 210t510 -211t211 -508t-211 -508t-510 -211t-509 210t-210 509zM492 604q0 -88 61 -150.5t149 -62.5h246q88 0 150.5 62.5t62.5 150.5v172v8l-6 13l-10 8q-4 2 -43 3t-49 11q-8 8 -17 58q-8 45 -20 71q-20 45 -69.5 79t-94.5 38h-150 q-88 0 -149 -62.5t-61 -150.5v-248zM666 606.5q0 16.5 12 28.5t29 12h239q16 0 28.5 -12t12.5 -28.5t-12 -29t-29 -12.5h-239q-16 0 -28.5 12.5t-12.5 29zM666 850q0 16 12 28.5t29 12.5h116q16 0 28.5 -12.5t12.5 -28.5t-12 -28.5t-29 -12.5h-116q-16 0 -28.5 12.5 t-12.5 28.5z" />
<glyph unicode="v" d="M96 719q0 297 210 508t509 211t510 -211t211 -508t-211 -508t-510 -211t-509 211t-210 508zM420 885l33 -43q8 6 18 13t37 18.5t33 -5.5q12 -14 67.5 -193t67.5 -206q14 -29 37.5 -51.5t57.5 -32.5q10 -3 20 -3q24 0 51 17q92 59 214 202.5t150 305.5q4 25 5 46 q0 87 -76 112q-26 9 -52 9q-59 0 -120 -46q-74 -53 -89 -141q32 19 56 19q25 0 41 -21q14 -19 14 -44q0 -28 -18 -63q-78 -141 -111 -141q-25 0 -65 158q-6 23 -13.5 69.5t-13.5 78.5t-19.5 65.5t-34.5 48.5q-15 10 -35 10q-8 0 -18 -2q-45 -8 -104 -53t-96 -86z" />
<glyph unicode="w" d="M96 713q0 299 210 509t509 210t510 -210t211 -509t-211 -509t-510 -210t-509 210t-210 509zM469 713q0 -102 54.5 -185.5t142.5 -126.5l-166 453q-31 -71 -31 -141zM526 903h23l92 4q8 0 12 -7t1 -14t-11 -7q-18 -2 -39 -5l125 -374l76 227l-53 147l-37 5q-8 0 -11.5 7 t1 14t12.5 7q57 -4 92 -4l92 4q8 0 12.5 -7t1 -14t-11.5 -7q-18 -2 -39 -5l125 -370l35 114q27 74 27 113q0 41 -29 94q-35 53 -35 82q0 25 16.5 43.5t40.5 18.5h7q-100 90 -236 90q-187 0 -289 -156zM719 381q43 -14 96 -14q63 0 117 20l-4 4l-107 291zM989 414 q80 45 127 124.5t47 174.5q0 86 -43 166q2 -10 2 -35q0 -61 -26 -125z" />
<glyph unicode="x" d="M96 719q0 297 212 509t509 212t508 -211t211 -510q0 -297 -211 -508t-508 -211q-299 0 -510 211t-211 508zM518 637h51v-250h47v250h52v41h-150v-41zM565 1059l64 -195v-127h55v133l64 189h-56l-35 -129h-2l-37 129h-53zM686 422q0 -18 8 -29q6 -8 23 -8q12 0 24 6 q14 6 25 21v-25h43v215h-43v-164q-8 -8 -12 -10q-6 -4 -13 -4q-8 0 -10 2l-2 4v8v164h-43v-180zM752 797q0 -29 18 -47.5t51 -18.5t51 19q18 16 19 47v123q0 27 -19 43q-18 18 -48.5 18t-53.5 -16q-18 -18 -18 -45v-123zM801 793v129q0 8 6 12q4 6 14 6q8 0 15 -6 q6 -4 6 -12v-129q0 -8 -6.5 -14.5t-14.5 -6.5q-10 0 -16 6q-4 9 -4 15zM842 387h43v16q6 -6 18 -14q12 -4 23 -4q20 0 28 12q10 14 11 35v119q0 25 -11 41q-12 12 -30 12q-14 0 -21 -4q-12 -8 -18 -14v92h-43v-291zM885 428v135q0 2 4 4l4 2q2 0 5 1t5 1q10 0 12 -6 q4 -4 5 -16v-111q0 -12 -2 -14q-6 -6 -13 -6q-2 0 -5 1t-5 1q-4 2 -10 8zM930 776q0 -18 8 -30.5t27 -12.5q10 0 26 8q20 12 29 23v-27h49v238h-49v-180q-4 -8 -14 -13q-10 -6 -15 -6q-6 0 -10 4q-2 2 -2 13v182h-49v-199zM987 449q0 -29 17 -50q18 -18 45 -18q33 0 49 16 q16 20 16 52v10h-45v-10q0 -20 -4 -24.5t-14.5 -4.5t-14.5 6q-4 4 -4 23v40h82v56q0 27 -16 47q-16 16 -45 16t-47.5 -18.5t-18.5 -44.5v-96zM1032 524v21q0 16 4 20t14.5 4t14.5 -4q4 -8 4 -20v-21h-37z" />
<glyph unicode="y" d="M96 717q0 299 211 510t510 211q297 0 508 -211t211 -510t-211 -509t-508 -210q-299 0 -510 210t-211 509zM340 944h125q35 -29 137.5 -152.5t106.5 -142.5q4 -20 4 -86.5t-6 -73.5q-8 -8 -33 -12t-57 -4h-33l-6 -41q18 0 96 2t98 2q201 0 219 -2l2 43q-10 2 -67 2h-66 q-2 14 -4 88q-1 37 -1 57.5t1 24.5q10 29 119.5 118t132.5 95q2 0 22 4h68l10 17h2l27 39h-2l2 4h-373l15 -60h102l-170 -153l-70 90q-70 90 -104 141h127v45l2 8l-2 2v5h-424v-60zM1159 438l29 -4l33 -2l8 62l-33 2l-37 4v-62zM1167 807l2 -266l58 -4l65 258q-82 0 -125 12 z" />
<glyph unicode="z" horiz-adv-x="1628" d="M96 719q0 297 210 508t509 211t509 -211t210 -508t-210 -508t-509 -211t-509 211t-210 508zM549 473l35 -90q57 14 100 42t61.5 48.5t45.5 54.5l12 15q8 8 16 8q2 0 10 -4q131 -57 179 -150l71 43q-16 33 -36.5 62.5t-40 50t-39 38t-36 29t-29.5 18.5t-21 11l-9 4 q-2 0 -4 2t-5 8.5t-3 12.5q8 23 25 22h14q18 -6 42 -6q14 0 31 2q44 6 105 37l-29 64q-47 -20 -91 -21q-32 0 -62 10l-10 4l-4 11q-4 6 -5 22v6q-20 2 -49 19q-84 -45 -96 -189q-2 -39 -8 -45q-49 -106 -170 -139zM723 969q0 -39 26.5 -65.5t65.5 -26.5t65.5 26.5t26.5 65.5 t-26.5 65.5t-65.5 26.5t-65.5 -26.5t-26.5 -65.5z" />
<glyph unicode="&#xa0;" d="M96 729q0 297 211 508t510 211q297 0 508 -210t211 -509t-210 -510t-509 -211t-510 211t-211 510z" />
<glyph unicode="&#xaa;" d="M96 719q0 297 211 508t510 211q297 0 508 -211t211 -508q0 -299 -211 -510t-508 -211t-509 212t-212 509zM434 543q0 -4 4 -8q158 -145 379 -146q158 0 277 74q12 6 32 22q12 6 4 17q-6 6 -16 2q-4 0 -10 -4t-10 -4q-129 -51 -269 -52q-205 0 -379 101q-10 6 -12 -2z M645 743q0 -61 34 -94t89 -33q25 0 57 9q39 12 78 51q25 -37 47 -53q12 -4 19 2q25 18 63 53q10 10 2 20q-33 41 -33 76v129v18v17v16q0 12 -1 18l-3 15q-2 10 -4 16.5t-6 14.5t-9 14t-11 12q-47 41 -125 41h-17q-145 -8 -166 -124q-4 -14 11 -19l80 -8q10 0 14 14 q10 43 61 51h6q29 0 46 -22q10 -14 10 -59v-13q-16 0 -62 -4q-61 -8 -92 -24q-88 -36 -88 -134zM764 757.5q0 59.5 61 78.5q18 4 62 4v-17q0 -61 -17 -86q-14 -29 -45 -39h-10q-51 0 -51 59.5zM1061 539q-8 -6 -8 -9.5t10 -3.5q4 2 14 3t17 1q17 1 29 2q32 0 38 -8 q2 -4 3 -11q0 -24 -25 -85q-4 -6 2 -6q1 -1 2 -1l6 3q45 39 51 111v4q0 8 -4 12q-4 8 -36 10q-6 0 -13 1q-26 0 -53 -7q-13 -4 -33 -16z" />
<glyph unicode="&#xad;" d="M96 719q0 297 210 508t509 211t510 -211t211 -508q0 -299 -211 -510t-510 -211t-509 211t-210 510zM501 824.5q-9 -19.5 15 -48.5h2l119 -145l-62 -176q-10 -35 4.5 -48.5t47.5 3.5l188 94l189 -94q33 -16 48 -3t3 48l-60 176l119 145h2q23 29 13.5 48.5t-46.5 19.5h-155 l-76 157q-16 35 -36.5 35t-37.5 -35l-73 -157h-158q-37 0 -46 -19.5z" />
<glyph unicode="&#xb2;" d="M96 717q0 297 209 506t504 213h14q297 -4 505 -213t208 -506q0 -299 -211 -509t-508 -210q-299 0 -510 211t-211 508zM453 733q0 -51 35.5 -87t86.5 -36q45 0 80 29l248 -125v-6q0 -51 36 -87t87 -36t87 36t36 87t-36 87t-87 36q-41 0 -80 -29l-248 123v8v6l248 125 q35 -29 80 -28q51 0 87 35.5t36 87t-36 86t-87 34.5t-87 -34.5t-36 -86.5v-8l-248 -125q-37 31 -80 31q-51 0 -86.5 -36t-35.5 -87z" />
<glyph unicode="&#xb3;" horiz-adv-x="1628" d="M96 719q0 299 211 510t508 211t508 -211t211 -510q0 -297 -210 -508t-509 -211t-509 211t-210 508zM420 909q-31 -96 50 -228t190.5 -221t166.5 -89q41 0 114 55t142.5 134t109.5 177.5t17 171.5q-49 160 -204 160q-61 0 -105.5 -32.5t-64.5 -65.5l-21 -35l-20 35 q-18 33 -62.5 65.5t-105.5 32.5q-70 0 -126 -39t-81 -121z" />
<glyph unicode="&#xb9;" d="M96 725q0 299 211 509t510 210q297 0 508 -210t211 -509t-211 -510t-508 -211q-299 0 -510 211t-211 510zM477 623h238v-236h203v236h237v202h-237v238h-203v-238h-238v-202z" />
<glyph unicode="&#xba;" d="M96 717q0 295 208 506t505 213h14q295 -4 504 -214t209 -505q0 -299 -211 -510t-510 -211q-297 0 -508 211t-211 510zM637 768h78v-201q0 -43 8 -59q6 -18 29 -39q25 -20 51 -29q35 -10 61 -10q35 0 66 6q33 10 65 25v90q-41 -27 -86 -27q-29 0 -43 11q-14 8 -22 24 q-4 10 -4 62v147h133v102h-133v131h-80q-6 -47 -21 -71q-16 -33 -39 -49q-18 -16 -63 -33v-80z" />
<glyph unicode="&#x152;" horiz-adv-x="2480" d="M932 268v903h436q164 0 236 -96q41 -57 41 -135q0 -86 -45 -133q-16 -27 -66 -51q72 -31 103 -82q37 -59 37 -133t-41 -144q-29 -43 -66 -69q-31 -27 -100 -49q-66 -10 -129 -11h-406zM1139 426h193q61 0 92 16q59 27 59 113q0 70 -59 96q-23 14 -88 15h-197v-240z M1139 817h193q55 0 96 23q37 20 37 78q0 61 -49 83q-51 14 -107 15h-170v-199zM1743 614q0 164 90 258q86 88 232 89q82 0 151 -29q70 -37 111 -96q41 -68 51 -136q8 -61 8 -127h-473q0 -94 68 -135q35 -27 92 -26q53 0 94 30q23 14 35 43h172q-6 -59 -61 -116 q-80 -92 -244 -93q-129 0 -229 76q-97 82 -97 262zM1880 1042v93h361v-93h-361zM1917 684h291q-6 63 -43 104q-45 33 -100 33q-68 0 -103 -37q-33 -39 -45 -100zM96 809v145q76 27 115 58q41 33 70 90q23 41 36 129h144v-238h239v-184h-239v-264q0 -92 8 -111q10 -25 41 -45 q27 -18 76 -18q84 0 155 49v-164q-70 -29 -118 -43q-55 -12 -117 -12q-45 0 -111 18q-53 18 -92 53q-43 33 -51 70q-16 31 -16 107v360h-140z" />
<glyph unicode="&#x153;" horiz-adv-x="3260" d="M1726 721q0 295 209 505t504 214h14q297 -2 505 -213t208 -506q0 -299 -211 -510t-508 -211t-509 211t-212 510zM2044 469h225q37 0 72 6q37 10 55 27q23 16 37 39q23 39 22 80q0 39 -20 73q-16 29 -57 45q27 14 36 29q25 27 25 74q0 43 -23 76q-41 53 -131 53h-241v-502 zM2158 557v133h109q35 0 49 -8q33 -14 33 -53q0 -49 -33 -64q-16 -8 -51 -8h-107zM2158 774v111h95q27 0 59 -8q27 -12 27 -48q0 -31 -20.5 -43t-53.5 -12h-107zM2494 662q0 -100 54 -146q55 -43 126 -43q90 0 136 51q33 35 34 66h-96q-6 -16 -18 -25q-23 -16 -53.5 -16 t-51.5 14q-37 23 -37 76h263q0 37 -4 70q-6 39 -29 75q-23 35 -62 54q-39 16 -84 16q-80 0 -129 -49q-49 -51 -49 -143zM2570 899h201v51h-201v-51zM2591 700q6 33 24 56q20 20 57 20q31 0 56 -18q23 -23 24 -58h-161zM96 717q0 295 208 506t505 213h14q295 -4 504 -214 t209 -505q0 -299 -211 -510t-510 -211q-297 0 -508 211t-211 510zM637 768h78v-201q0 -43 8 -59q6 -18 29 -39q25 -20 51 -29q35 -10 61 -10q35 0 66 6q33 10 65 25v90q-41 -27 -86 -27q-29 0 -43 11q-14 8 -22 24q-4 10 -4 62v147h133v102h-133v131h-80q-6 -47 -21 -71 q-16 -33 -39 -49q-18 -16 -63 -33v-80z" />
<glyph unicode="&#x2000;" horiz-adv-x="722" />
<glyph unicode="&#x2001;" horiz-adv-x="1447" />
<glyph unicode="&#x2002;" horiz-adv-x="722" />
<glyph unicode="&#x2003;" horiz-adv-x="1447" />
<glyph unicode="&#x2004;" horiz-adv-x="481" />
<glyph unicode="&#x2005;" horiz-adv-x="360" />
<glyph unicode="&#x2006;" horiz-adv-x="239" />
<glyph unicode="&#x2007;" horiz-adv-x="239" />
<glyph unicode="&#x2008;" horiz-adv-x="180" />
<glyph unicode="&#x2009;" horiz-adv-x="288" />
<glyph unicode="&#x200a;" horiz-adv-x="79" />
<glyph unicode="&#x2010;" d="M96 719q0 297 210 508t509 211t510 -211t211 -508q0 -299 -211 -510t-510 -211t-509 211t-210 510zM501 824.5q-9 -19.5 15 -48.5h2l119 -145l-62 -176q-10 -35 4.5 -48.5t47.5 3.5l188 94l189 -94q33 -16 48 -3t3 48l-60 176l119 145h2q23 29 13.5 48.5t-46.5 19.5h-155 l-76 157q-16 35 -36.5 35t-37.5 -35l-73 -157h-158q-37 0 -46 -19.5z" />
<glyph unicode="&#x2011;" d="M96 719q0 297 210 508t509 211t510 -211t211 -508q0 -299 -211 -510t-510 -211t-509 211t-210 510zM501 824.5q-9 -19.5 15 -48.5h2l119 -145l-62 -176q-10 -35 4.5 -48.5t47.5 3.5l188 94l189 -94q33 -16 48 -3t3 48l-60 176l119 145h2q23 29 13.5 48.5t-46.5 19.5h-155 l-76 157q-16 35 -36.5 35t-37.5 -35l-73 -157h-158q-37 0 -46 -19.5z" />
<glyph unicode="&#x2012;" d="M96 719q0 297 210 508t509 211t510 -211t211 -508q0 -299 -211 -510t-510 -211t-509 211t-210 510zM501 824.5q-9 -19.5 15 -48.5h2l119 -145l-62 -176q-10 -35 4.5 -48.5t47.5 3.5l188 94l189 -94q33 -16 48 -3t3 48l-60 176l119 145h2q23 29 13.5 48.5t-46.5 19.5h-155 l-76 157q-16 35 -36.5 35t-37.5 -35l-73 -157h-158q-37 0 -46 -19.5z" />
<glyph unicode="&#x2013;" horiz-adv-x="1024" d="M96 -2v1440h834v-1440h-834z" />
<glyph unicode="&#x2014;" horiz-adv-x="2048" d="M96 -2v1440h1858v-1440h-1858z" />
<glyph unicode="&#x2026;" horiz-adv-x="4890" d="M3356 717q0 299 211 510t508 211q299 0 510 -211t211 -510q0 -297 -211 -508t-510 -211t-509 210t-210 509zM3745 717q0 -135 97.5 -231.5t232.5 -96.5q137 0 233.5 96.5t96.5 231.5q0 137 -96.5 233.5t-233.5 96.5q-135 0 -232.5 -96.5t-97.5 -233.5zM3813 716.5 q0 108.5 77 186.5t185.5 78t186 -78t77.5 -186.5t-77.5 -185t-186 -76.5t-185.5 76.5t-77 185zM3934 598q2 -20 17.5 -34.5t35.5 -10.5q23 4 36 20.5t11 36.5v2v172l133 25v-139q-8 4 -24 4q-23 -4 -36 -20.5t-11 -37t17 -34t35.5 -11.5t35 19.5t12.5 38.5v2v252l-191 -33 v-199q-8 4 -24 4q-20 -2 -34.5 -19.5t-12.5 -37.5zM1726 717q0 299 211 510t508 211q299 0 510 -211t211 -510q0 -297 -211 -508t-510 -211t-509 210t-210 509zM2115 717q0 -135 97.5 -231.5t232.5 -96.5q137 0 233.5 96.5t96.5 231.5q0 137 -96.5 233.5t-233.5 96.5 q-135 0 -232.5 -96.5t-97.5 -233.5zM2183 716.5q0 108.5 77 186.5t185.5 78t186 -78t77.5 -186.5t-77.5 -185t-186 -76.5t-185.5 76.5t-77 185zM2304 598q2 -20 17.5 -34.5t35.5 -10.5q23 4 36 20.5t11 36.5v2v172l133 25v-139q-8 4 -24 4q-23 -4 -36 -20.5t-11 -37t17 -34 t35.5 -11.5t35 19.5t12.5 38.5v2v252l-191 -33v-199q-8 4 -24 4q-20 -2 -34.5 -19.5t-12.5 -37.5zM96 717q0 299 211 510t508 211q299 0 510 -211t211 -510q0 -297 -211 -508t-510 -211t-509 210t-210 509zM485 717q0 -135 97.5 -231.5t232.5 -96.5q137 0 233.5 96.5 t96.5 231.5q0 137 -96.5 233.5t-233.5 96.5q-135 0 -232.5 -96.5t-97.5 -233.5zM553 716.5q0 108.5 77 186.5t185.5 78t186 -78t77.5 -186.5t-77.5 -185t-186 -76.5t-185.5 76.5t-77 185zM674 598q2 -20 17.5 -34.5t35.5 -10.5q23 4 36 20.5t11 36.5v2v172l133 25v-139 q-8 4 -24 4q-23 -4 -36 -20.5t-11 -37t17 -34t35.5 -11.5t35 19.5t12.5 38.5v2v252l-191 -33v-199q-8 4 -24 4q-20 -2 -34.5 -19.5t-12.5 -37.5z" />
<glyph unicode="&#x202f;" horiz-adv-x="288" />
<glyph unicode="&#x205f;" horiz-adv-x="360" />
<glyph unicode="&#x2122;" horiz-adv-x="2353" d="M1190 590v244q0 59 40 99t97 40q45 0 81 -30t48 -77q59 74 154 74q68 0 122 -42t71 -105q74 74 188 73q111 0 189.5 -77.5t78.5 -188.5v-500h-534v279h-322v211h-213zM1205 1143q0 47 33.5 80.5t80.5 33.5t81 -33.5t34 -80.5q0 -49 -34 -84t-81 -35t-80.5 35t-33.5 84z M1459 1143q0 61 44 106t107 45q61 0 106.5 -45t45.5 -106q0 -63 -45 -107.5t-107 -44.5q-63 0 -107 44.5t-44 107.5zM1794 1143q0 80 57.5 137t139.5 57t138.5 -57t56.5 -137q0 -84 -56.5 -141.5t-138.5 -57.5t-139.5 58.5t-57.5 140.5zM96 641v502q0 57 41 98t99 41 q61 0 101 -40t40 -99v-139h483q57 0 98 -42t41 -104q0 -57 -40.5 -98t-98.5 -41h-483v-78q0 -82 53 -144.5t123 -62.5h309q59 0 98 -39t39 -100q0 -57 -40.5 -98t-98.5 -41h-313q-186 0 -318.5 142t-132.5 343z" />
<glyph unicode="&#xe000;" horiz-adv-x="1440" d="M0 1440h1440v-1440h-1440v1440z" />
<glyph unicode="&#xfb01;" horiz-adv-x="3258" d="M1724 721q0 299 210 509t509 210t510 -211t211 -508q0 -299 -211 -510t-510 -211q-297 0 -508 211t-211 510zM2163 1048.5q0 -32.5 22.5 -55t55 -22.5t55 22.5t22.5 55t-22.5 56t-55 23.5t-55 -23.5t-22.5 -56zM2177 483h127v441h-127v-441zM2365 483h127v283 q6 6 15.5 12t38 17.5t49.5 -7.5q8 -2 15 -14t7 -22v-269h125v269q0 43 -23.5 85t-62.5 62q-44 23 -87 23q-39 0 -77 -19v21h-127v-441zM96 719q0 299 211 510t508 211t508 -211t211 -510q0 -297 -210 -508t-509 -211t-509 211t-210 508zM629 694h106v-323h133v323h133v133 h-133v68q0 16 8.5 28.5t18.5 12.5h106v131h-106q-66 0 -113 -51t-47 -123v-66h-106v-133z" />
<glyph unicode="&#xfb02;" horiz-adv-x="3258" d="M1724 719q0 297 211 508t510 211q297 0 508 -211t211 -508t-211 -508t-508 -211q-299 0 -510 211t-211 508zM2060 606q70 -94 178 -130q69 -23 136 -23q38 0 74 8q101 20 184 85.5t106 158.5q59 0 90 34q-16 -3 -30 -2q-30 0 -56 11q63 6 84 51q-14 -8 -42 -12.5t-50 1.5 q0 8 -4 17q-16 57 -63 95q-42 34 -89 34h-10l18 6l9 2q6 2 13 4t13 5t10.5 7.5t2.5 8.5q-1 3 -9 3q-17 0 -67 -18q39 16 41 31q-33 -4 -60 -29q10 14 11 25q-68 -47 -119 -186q-39 37 -60 47q-92 47 -196 86q-4 -59 65 -97q-12 2 -47 -6q10 -59 86 -75q-35 -2 -53 -21 q23 -48 79 -48q8 0 17 1q-43 -20 -28.5 -46t51.5 -20q-59 -61 -145.5 -61t-139.5 53zM96 719q0 299 211 510t508 211t508 -211t211 -510q0 -297 -210 -508t-509 -211t-509 211t-210 508zM629 694h106v-323h133v323h133v133h-133v68q0 16 8.5 28.5t18.5 12.5h106v131h-106 q-66 0 -113 -51t-47 -123v-66h-106v-133z" />
<glyph unicode="&#xfb03;" horiz-adv-x="4886" d="M3352 721q0 299 210 509t509 210t510 -211t211 -508q0 -299 -211 -510t-510 -211q-297 0 -508 211t-211 510zM3791 1048.5q0 -32.5 22.5 -55t55 -22.5t55 22.5t22.5 55t-22.5 56t-55 23.5t-55 -23.5t-22.5 -56zM3805 483h127v441h-127v-441zM3993 483h127v283 q6 6 15.5 12t38 17.5t49.5 -7.5q8 -2 15 -14t7 -22v-269h125v269q0 43 -23.5 85t-62.5 62q-44 23 -87 23q-39 0 -77 -19v21h-127v-441zM1724 719q0 299 211 510t508 211t508 -211t211 -510q0 -297 -210 -508t-509 -211t-509 211t-210 508zM2257 694h106v-323h133v323h133 v133h-133v68q0 16 8.5 28.5t18.5 12.5h106v131h-106q-66 0 -113 -51t-47 -123v-66h-106v-133zM96 719q0 299 211 510t508 211t508 -211t211 -510q0 -297 -210 -508t-509 -211t-509 211t-210 508zM629 694h106v-323h133v323h133v133h-133v68q0 16 8.5 28.5t18.5 12.5h106v131 h-106q-66 0 -113 -51t-47 -123v-66h-106v-133z" />
<glyph unicode="&#xfb04;" horiz-adv-x="4886" d="M3352 719q0 297 211 508t510 211q297 0 508 -211t211 -508t-211 -508t-508 -211q-299 0 -510 211t-211 508zM3688 606q70 -94 178 -130q69 -23 136 -23q38 0 74 8q101 20 184 85.5t106 158.5q59 0 90 34q-16 -3 -30 -2q-30 0 -56 11q63 6 84 51q-14 -8 -42 -12.5t-50 1.5 q0 8 -4 17q-16 57 -63 95q-42 34 -89 34h-10l18 6l9 2q6 2 13 4t13 5t10.5 7.5t2.5 8.5q-1 3 -9 3q-17 0 -67 -18q39 16 41 31q-33 -4 -60 -29q10 14 11 25q-68 -47 -119 -186q-39 37 -60 47q-92 47 -196 86q-4 -59 65 -97q-12 2 -47 -6q10 -59 86 -75q-35 -2 -53 -21 q23 -48 79 -48q8 0 17 1q-43 -20 -28.5 -46t51.5 -20q-59 -61 -145.5 -61t-139.5 53zM1724 719q0 299 211 510t508 211t508 -211t211 -510q0 -297 -210 -508t-509 -211t-509 211t-210 508zM2257 694h106v-323h133v323h133v133h-133v68q0 16 8.5 28.5t18.5 12.5h106v131h-106 q-66 0 -113 -51t-47 -123v-66h-106v-133zM96 719q0 299 211 510t508 211t508 -211t211 -510q0 -297 -210 -508t-509 -211t-509 211t-210 508zM629 694h106v-323h133v323h133v133h-133v68q0 16 8.5 28.5t18.5 12.5h106v131h-106q-66 0 -113 -51t-47 -123v-66h-106v-133z" />
</font>
</defs>
</svg>
